<svg width="60" height="60" viewBox="0 0 60 60" fill="none" xmlns="http://www.w3.org/2000/svg">
<g style="mix-blend-mode:luminosity">
<path d="M30 60C46.5685 60 60 46.5685 60 30C60 13.4315 46.5685 0 30 0C13.4315 0 0 13.4315 0 30C0 46.5685 13.4315 60 30 60Z" fill="#BC95E2"/>
<path d="M7.31613 31.4988C6.73254 29.4258 6.43652 27.2727 6.43652 25.0995C6.43652 12.1066 17.0072 1.53595 30.0002 1.53595C42.9933 1.53595 53.5639 12.1065 53.5639 25.0995C53.5639 27.2406 53.2766 29.3628 52.7099 31.4073L50.4513 30.7813C50.9616 28.9406 51.2203 27.029 51.2203 25.0995C51.2203 13.3988 41.7012 3.8797 30.0004 3.8797C18.2995 3.8797 8.78027 13.399 8.78027 25.0997C8.78027 27.058 9.04664 28.9973 9.57223 30.8638L7.31613 31.4988Z" fill="#F6F1F1"/>
<path d="M46.6891 54.9328C45.243 55.9031 43.7078 56.7515 42.0977 57.4605C40.8496 58.0113 39.557 58.4801 38.227 58.8574C35.6137 59.6016 32.8539 60 30.0004 60C27.148 60 24.3883 59.6016 21.7738 58.8586C20.9254 58.6172 20.091 58.3383 19.2742 58.0242C19.2238 58.0055 19.1734 57.9867 19.123 57.9668C18.7117 57.8074 18.3051 57.6375 17.9031 57.4605C16.293 56.7504 14.7578 55.9031 13.3105 54.9316C14.5281 53.2476 16.0949 51.8344 17.9031 50.7926C19.0984 50.1047 20.3992 49.5808 21.7738 49.2516C21.9859 49.2 22.2004 49.1531 22.416 49.1121C22.8227 49.0324 23.2363 48.9715 23.6547 48.9281C23.7754 48.9152 23.8949 48.9035 24.0168 48.8941C24.4129 48.8613 24.8137 48.8449 25.2191 48.8449H34.7805C35.3102 48.8449 35.8316 48.873 36.3449 48.9269C36.7633 48.9703 37.1758 49.0324 37.5836 49.1098C37.7465 49.1414 37.9082 49.1754 38.0688 49.2117C38.1215 49.2258 38.1754 49.2363 38.227 49.2504C39.6027 49.5808 40.9023 50.1047 42.0977 50.7926C43.9059 51.8355 45.4715 53.2488 46.6891 54.9328Z" fill="#ECC32E"/>
<path d="M15.6259 32.6499C15.6259 35.0754 13.8541 37.0866 11.534 37.4598C11.2804 37.501 11.0195 37.5223 10.7534 37.5223C8.06172 37.5223 5.88086 35.3414 5.88086 32.6498C5.88086 29.9581 8.06172 27.7772 10.7534 27.7772C11.0195 27.7772 11.2803 27.7987 11.534 27.8398C13.8541 28.2132 15.6259 30.2243 15.6259 32.6499Z" fill="#FFCBBE"/>
<path d="M15.6262 32.6498C15.6262 35.0753 13.8543 37.0865 11.5342 37.4598C11.1127 35.9273 10.8877 34.3144 10.8877 32.6498C10.8877 30.9852 11.1127 29.3723 11.5342 27.8398C13.8543 28.2131 15.6262 30.2243 15.6262 32.6498Z" fill="#EAAC9D"/>
<path d="M10.7541 34.3913C11.7159 34.3913 12.4955 33.6117 12.4955 32.6499C12.4955 31.6882 11.7159 30.9085 10.7541 30.9085C9.79235 30.9085 9.0127 31.6882 9.0127 32.6499C9.0127 33.6117 9.79235 34.3913 10.7541 34.3913Z" fill="#EAAC9D"/>
<path d="M25.2191 48.8449C21.7785 48.8449 19.4465 53.8172 19.2742 58.0242C19.2238 58.0055 19.1734 57.9867 19.123 57.9668C18.7117 57.8074 18.3051 57.6375 17.9031 57.4605C16.293 56.7504 14.7578 55.9031 13.3105 54.9316C14.5281 53.2476 16.0949 51.8344 17.9031 50.7926C19.0984 50.1047 20.3992 49.5808 21.7738 49.2516C21.9859 49.2 22.2004 49.1531 22.416 49.1121C22.8227 49.0324 23.2363 48.9715 23.6547 48.9281C23.7754 48.9152 23.8949 48.9035 24.0168 48.8941C24.4129 48.8613 24.8137 48.8449 25.2191 48.8449Z" fill="#E7A52E"/>
<path d="M29.998 54.8568L36.2083 58.3081L38.0975 48.9347L34.2387 47.248" fill="#90D8F9"/>
<path d="M29.9988 54.8568L23.7886 58.3081L21.8994 48.9347L25.7583 47.248" fill="#90D8F9"/>
<path d="M44.3721 32.6499C44.3721 35.0754 46.1439 37.0866 48.464 37.4598C48.7176 37.501 48.9785 37.5223 49.2446 37.5223C51.9363 37.5223 54.1171 35.3414 54.1171 32.6498C54.1171 29.9581 51.9363 27.7772 49.2446 27.7772C48.9785 27.7772 48.7177 27.7987 48.464 27.8398C46.1439 28.2132 44.3721 30.2243 44.3721 32.6499Z" fill="#FFCBBE"/>
<path d="M44.3711 32.6498C44.3711 35.0753 46.143 37.0865 48.463 37.4598C48.8846 35.9273 49.1096 34.3144 49.1096 32.6498C49.1096 30.9852 48.8846 29.3723 48.463 27.8398C46.143 28.2131 44.3711 30.2243 44.3711 32.6498Z" fill="#EAAC9D"/>
<path d="M49.2443 34.3912C50.2061 34.3912 50.9857 33.6115 50.9857 32.6498C50.9857 31.688 50.2061 30.9084 49.2443 30.9084C48.2826 30.9084 47.5029 31.688 47.5029 32.6498C47.5029 33.6115 48.2826 34.3912 49.2443 34.3912Z" fill="#EAAC9D"/>
<path d="M35.2389 43.188V49.618C35.2389 51.972 33.6868 53.9617 31.5488 54.6227C31.0594 54.7746 30.5378 54.8567 29.9984 54.8567C27.1049 54.8567 24.7598 52.5115 24.7598 49.6181V43.1881H35.2389V43.188Z" fill="#EAAC9D"/>
<path d="M35.2397 49.2108V49.618C35.2397 51.972 33.6875 53.9618 31.5496 54.6227C29.6205 54.0297 28.1702 52.3526 27.9023 50.3004C28.2524 50.3218 28.6043 50.3325 28.958 50.3325C29.9493 50.3325 30.9209 50.2538 31.8675 50.0984C33.0339 49.9109 34.1609 49.6108 35.2397 49.2108Z" fill="#FFCBBE"/>
<path d="M48.1282 30.0599C48.1282 39.0816 41.5374 46.5655 32.9087 47.9551C31.962 48.1105 30.9904 48.1891 29.9991 48.1891C19.9862 48.1891 11.8701 40.073 11.8701 30.0601V11.603H48.1283V30.0599H48.1282Z" fill="#FFCBBE"/>
<path d="M33.1924 47.9074C33.0986 47.9238 33.0037 47.9402 32.9088 47.9555C31.9619 48.1101 30.9904 48.1887 29.999 48.1887C19.9865 48.1887 11.8701 40.0734 11.8701 30.0598V11.6027H18.2627V30.0598C18.2627 38.9824 24.7057 46.3969 33.1924 47.9074Z" fill="#EAAC9D"/>
<path d="M48.1273 22.7965V30.0598H44.7031C44.7031 30.0598 46.4562 21.2766 41.6632 18.2367C36.8703 15.198 34.441 19.7566 29.9984 19.7566C27.7789 19.7566 26.0621 18.6187 24.3019 17.8594C22.5394 17.0977 20.7324 16.7156 18.3335 18.2367C13.5406 21.2766 15.2949 30.0598 15.2949 30.0598H11.8695V22.7965C11.0855 18.8215 8.68901 13.0348 13.4234 8.30039C18.1589 3.56484 21.6078 3.97383 23.0105 1.63594L24.0628 4.79297L29.9984 0L35.9351 4.79297L36.9874 1.63594C38.3902 3.97383 41.839 3.56484 46.5734 8.30039C51.3089 13.0348 48.9124 18.8215 48.1273 22.7965Z" fill="#D9723E"/>
<path d="M21.6078 11.1445C21.6078 14.2629 24.3019 17.8594 24.3019 17.8594C22.5394 17.0977 20.7324 16.7156 18.3335 18.2367C13.5406 21.2766 15.2949 30.0598 15.2949 30.0598H11.8695V22.7965C11.0855 18.8215 8.68901 13.0348 13.4234 8.30039C18.1589 3.56484 21.6078 3.97383 23.0105 1.63594L24.0628 4.79297L29.9984 0C27.2187 5.53359 21.6078 8.02734 21.6078 11.1445Z" fill="#BD5423"/>
<path d="M30 39.6012C28.482 39.6012 26.9639 39.2208 25.5802 38.4602C25.1898 38.2456 25.0475 37.7553 25.262 37.3649C25.4766 36.9746 25.967 36.8323 26.3573 37.0468C28.6383 38.3008 31.362 38.3007 33.6428 37.0468C34.0329 36.8322 34.5234 36.9746 34.7381 37.3649C34.9526 37.7553 34.8102 38.2456 34.4199 38.4602C33.0361 39.2209 31.5181 39.6012 30 39.6012Z" fill="#DF9380"/>
<path d="M32.0558 34.1829H27.9428C27.4528 34.1829 27.0557 33.7858 27.0557 33.2958C27.0557 32.8058 27.4528 32.4087 27.9428 32.4087H32.0558C32.5458 32.4087 32.9429 32.8058 32.9429 33.2958C32.9429 33.7856 32.5458 34.1829 32.0558 34.1829Z" fill="#EAAC9D"/>
<path d="M32.9697 29.1985C32.9697 31.2101 34.6004 32.8407 36.6119 32.8407C38.6234 32.8407 40.2541 31.2101 40.2541 29.1985" fill="#EAAC9D"/>
<path d="M36.6127 31.8103C38.0552 31.8103 39.2245 30.641 39.2245 29.1986C39.2245 27.7561 38.0552 26.5868 36.6127 26.5868C35.1703 26.5868 34.001 27.7561 34.001 29.1986C34.001 30.641 35.1703 31.8103 36.6127 31.8103Z" fill="#2F373B"/>
<path d="M37.7002 29.8568C38.3183 29.8568 38.8193 29.3558 38.8193 28.7377C38.8193 28.1196 38.3183 27.6185 37.7002 27.6185C37.0821 27.6185 36.5811 28.1196 36.5811 28.7377C36.5811 29.3558 37.0821 29.8568 37.7002 29.8568Z" fill="white"/>
<path d="M19.7451 29.1985C19.7451 31.2101 21.3758 32.8407 23.3873 32.8407C25.3988 32.8407 27.0295 31.2101 27.0295 29.1985" fill="#EAAC9D"/>
<path d="M23.3871 31.8103C24.8296 31.8103 25.9989 30.641 25.9989 29.1986C25.9989 27.7561 24.8296 26.5868 23.3871 26.5868C21.9447 26.5868 20.7754 27.7561 20.7754 29.1986C20.7754 30.641 21.9447 31.8103 23.3871 31.8103Z" fill="#2F373B"/>
<path d="M23.998 31.738C23.8023 31.7861 23.5973 31.8107 23.3875 31.8107C21.9449 31.8107 20.7754 30.6412 20.7754 29.1986C20.7754 27.756 21.9449 26.5865 23.3875 26.5865C23.5973 26.5865 23.8023 26.6111 23.998 26.6591C22.8496 26.9334 21.9977 27.967 21.9977 29.1986C21.9977 30.4302 22.8496 31.4638 23.998 31.738Z" fill="#181E21"/>
<path d="M37.2227 31.738C37.027 31.7861 36.8219 31.8107 36.6121 31.8107C35.1695 31.8107 34 30.6412 34 29.1986C34 27.756 35.1695 26.5865 36.6121 26.5865C36.8219 26.5865 37.027 26.6111 37.2227 26.6591C36.0742 26.9334 35.2223 27.967 35.2223 29.1986C35.2223 30.4302 36.0742 31.4638 37.2227 31.738Z" fill="#181E21"/>
<path d="M24.4756 29.8568C25.0937 29.8568 25.5947 29.3558 25.5947 28.7377C25.5947 28.1196 25.0937 27.6185 24.4756 27.6185C23.8575 27.6185 23.3564 28.1196 23.3564 28.7377C23.3564 29.3558 23.8575 29.8568 24.4756 29.8568Z" fill="white"/>
<path d="M43.11 44.0681C41.9542 44.0681 40.8602 43.8953 39.918 43.6665L40.4711 41.389C47.3257 43.0538 49.3221 37.9852 49.4037 37.7686L51.604 38.5758C51.5762 38.6521 50.9042 40.4611 49.1118 41.9766C47.2335 43.5646 45.0822 44.0681 43.11 44.0681Z" fill="#F6F1F1"/>
<path d="M5.20947 38.6391L6.50076 38.451C7.53541 38.3003 8.25189 37.3394 8.10119 36.3047L6.97209 28.5544C6.82138 27.5198 5.86045 26.8033 4.8258 26.954L3.53451 27.1421C2.49986 27.2928 1.78338 28.2537 1.93408 29.2884L3.06318 37.0387C3.214 38.0733 4.17494 38.7898 5.20947 38.6391Z" fill="#2F373B"/>
<path d="M11.483 40.2098L8.36414 40.6641C6.87715 40.8808 5.49609 39.8508 5.27941 38.3638L3.68015 27.3861C3.46347 25.8991 4.49344 24.518 5.98043 24.3014L9.09926 23.847C10.5862 23.6303 11.9673 24.6603 12.184 26.1473L13.7832 37.1251C13.9998 38.6121 12.97 39.9931 11.483 40.2098Z" fill="#90D8F9"/>
<path d="M13.2098 33.1971L13.782 37.1253C13.9986 38.6121 12.9688 39.9932 11.482 40.2098L8.36277 40.6642C6.8759 40.8808 5.49484 39.851 5.27828 38.3641L4.70605 34.4359C4.92262 35.9228 6.30367 36.9526 7.79055 36.7361L10.9097 36.2816C12.3966 36.0651 13.4263 34.684 13.2098 33.1971Z" fill="#61A2F9"/>
<path d="M54.7906 38.6391L53.4994 38.451C52.4647 38.3003 51.7482 37.3394 51.8989 36.3047L53.028 28.5544C53.1787 27.5198 54.1397 26.8033 55.1743 26.954L56.4656 27.1421C57.5003 27.2928 58.2167 28.2537 58.066 29.2884L56.9369 37.0387C56.7861 38.0733 55.8252 38.7898 54.7906 38.6391Z" fill="#2F373B"/>
<path d="M48.5174 40.2098L51.6362 40.6641C53.1232 40.8808 54.5043 39.8508 54.721 38.3638L56.3202 27.3861C56.5369 25.8991 55.5069 24.518 54.0199 24.3014L50.9011 23.847C49.4141 23.6303 48.0331 24.6603 47.8164 26.1473L46.2173 37.1251C46.0006 38.6121 47.0304 39.9931 48.5174 40.2098Z" fill="#90D8F9"/>
<path d="M46.7895 33.1971L46.2172 37.1253C46.0007 38.6121 47.0304 39.9932 48.5174 40.2098L51.6366 40.6642C53.1234 40.8808 54.5045 39.851 54.7211 38.3641L55.2933 34.4359C55.0767 35.9228 53.6957 36.9526 52.2088 36.7361L49.0896 36.2816C47.6026 36.0651 46.5729 34.684 46.7895 33.1971Z" fill="#61A2F9"/>
<path d="M39.6228 45.2193C41.2358 45.2193 42.5435 43.9116 42.5435 42.2986C42.5435 40.6856 41.2358 39.3779 39.6228 39.3779C38.0098 39.3779 36.7021 40.6856 36.7021 42.2986C36.7021 43.9116 38.0098 45.2193 39.6228 45.2193Z" fill="#2F373B"/>
<path d="M40.492 45.0879C40.2178 45.1734 39.926 45.2191 39.6236 45.2191C38.01 45.2191 36.7021 43.9113 36.7021 42.2988C36.7021 40.6851 38.01 39.3785 39.6236 39.3785C39.926 39.3785 40.2178 39.4242 40.492 39.5097C39.3037 39.88 38.4412 40.9886 38.4412 42.2988C38.4412 43.609 39.3037 44.7175 40.492 45.0879Z" fill="#181E21"/>
</g>
</svg>
