<svg width="297" height="222" viewBox="0 0 297 222" fill="none" xmlns="http://www.w3.org/2000/svg">
<g clip-path="url(#clip0)">
<path d="M297 195.069H0V195.248H297V195.069Z" fill="#D1E3FF"/>
<path d="M264.686 199.597H248.113V199.776H264.686V199.597Z" fill="#D1E3FF"/>
<path d="M165.785 199.597H152.183V199.776H165.785V199.597Z" fill="#D1E3FF"/>
<path d="M135.016 202.159H85.8926V202.338H135.016V202.159Z" fill="#D1E3FF"/>
<path d="M68.6661 201.146H39.7383V201.325H68.6661V201.146Z" fill="#D1E3FF"/>
<path d="M242.352 199.597H191.684V199.776H242.352V199.597Z" fill="#D1E3FF"/>
<path d="M34.8678 201.146H30.6504V201.325H34.8678V201.146Z" fill="#D1E3FF"/>
<path d="M140.778 168.496H26.0762C24.2348 168.496 22.6904 166.947 22.6904 165.1V3.39613C22.6904 1.54911 24.2348 0 26.0762 0H140.778C142.619 0 144.163 1.54911 144.163 3.39613V165.1C144.163 167.006 142.678 168.496 140.778 168.496ZM26.0762 0.178744C24.2942 0.178744 22.8092 1.6087 22.8092 3.45572V165.159C22.8092 166.947 24.2348 168.436 26.0762 168.436H140.778C142.56 168.436 144.045 167.006 144.045 165.159V3.39613C144.045 1.6087 142.619 0.119163 140.778 0.119163H26.0762V0.178744Z" fill="#D1E3FF"/>
<path d="M269.26 168.496H154.559C152.717 168.496 151.173 166.947 151.173 165.1V3.39613C151.173 1.54911 152.717 0 154.559 0H269.26C271.101 0 272.646 1.54911 272.646 3.39613V165.1C272.646 167.006 271.161 168.496 269.26 168.496ZM154.559 0.178744C152.777 0.178744 151.292 1.6087 151.292 3.45572V165.159C151.292 166.947 152.717 168.436 154.559 168.436H269.26C271.042 168.436 272.527 167.006 272.527 165.159V3.39613C272.527 1.6087 271.101 0.119163 269.26 0.119163H154.559V0.178744Z" fill="#D1E3FF"/>
<path d="M202.969 136.858C202.613 136.858 202.316 136.858 201.96 136.918C195.01 137.395 189.367 143.055 188.892 150.085C188.773 151.694 188.951 153.243 189.367 154.673C190.971 160.631 191.565 166.828 191.565 173.024V191.077C191.565 192.388 192.634 193.461 193.941 193.461H202.969H211.998H251.083V136.918H202.969V136.858Z" fill="#E3EEFF"/>
<path d="M265.162 150.92C265.162 142.817 258.331 136.263 250.133 136.858C243.184 137.335 237.541 142.995 237.065 150.026C236.947 151.635 237.125 153.184 237.541 154.614C239.144 160.572 239.738 166.768 239.738 172.965V191.018C239.738 192.329 240.808 193.401 242.114 193.401H260.113C261.419 193.401 262.489 192.329 262.489 191.018V171.892C262.489 166.113 263.142 160.274 264.686 154.673C264.983 153.482 265.162 152.23 265.162 150.92Z" fill="#F3F8FF"/>
<path d="M231.719 159.023H151.647V193.342H231.719V159.023Z" fill="#E3EEFF"/>
<path d="M196.02 117.912H119.928C114.048 117.912 109.296 122.678 109.296 128.577V166.828H206.712V128.636C206.712 122.678 201.9 117.912 196.02 117.912Z" fill="#CADEFC"/>
<path d="M209.979 117.912H132.819C127.235 117.912 122.661 122.44 122.661 128.1V166.828H220.077V128.1C220.077 122.44 215.563 117.912 209.979 117.912Z" fill="#F3F8FF"/>
<path d="M231.065 155.925H155.033C154.499 155.925 154.083 156.342 154.083 156.878V169.032C154.083 169.569 154.499 169.986 155.033 169.986H231.065C232.788 169.986 234.154 168.615 234.154 166.888V159.082C234.154 157.295 232.729 155.925 231.065 155.925Z" fill="#CADEFC"/>
<path d="M104.247 136.858C103.89 136.858 103.593 136.858 103.237 136.918C96.2871 137.395 90.6441 143.055 90.1689 150.085C90.0501 151.694 90.2283 153.243 90.6441 154.673C92.2479 160.631 92.8419 166.828 92.8419 173.024V191.077C92.8419 192.388 93.9111 193.461 95.2179 193.461H104.247H113.276H152.361V136.918H104.247V136.858Z" fill="#E3EEFF"/>
<path d="M166.379 150.92C166.379 142.817 159.548 136.263 151.351 136.858C144.401 137.335 138.758 142.995 138.283 150.026C138.164 151.635 138.343 153.184 138.758 154.614C140.362 160.572 140.956 166.768 140.956 172.965V191.018C140.956 192.329 142.025 193.401 143.332 193.401H161.33C162.637 193.401 163.706 192.329 163.706 191.018V171.892C163.706 166.113 164.36 160.274 165.904 154.673C166.201 153.482 166.379 152.23 166.379 150.92Z" fill="#F3F8FF"/>
<path d="M250.074 195.129H105.257C104.306 195.129 103.534 194.354 103.534 193.401H251.797C251.797 194.354 251.024 195.129 250.074 195.129Z" fill="#CADEFC"/>
<path d="M44.4907 152.23H28.6309V192.567H44.4907V152.23Z" fill="#E3EEFF"/>
<path d="M110.009 192.567H31.7197V195.129H110.009V192.567Z" fill="#E3EEFF"/>
<path d="M44.5071 192.523H113.055V152.186H44.5071V192.523Z" fill="#F3F8FF"/>
<path d="M50.8042 170.403H106.818V157.176H50.8042V170.403Z" fill="#E3EEFF"/>
<path d="M50.8042 187.593H106.818V174.366H50.8042V187.593Z" fill="#E3EEFF"/>
<path d="M85.7146 158.427H71.8744C71.3992 158.427 70.9834 158.01 70.9834 157.533C70.9834 157.057 71.3992 156.64 71.8744 156.64H85.774C86.2492 156.64 86.665 157.057 86.665 157.533C86.665 158.01 86.2492 158.427 85.7146 158.427Z" fill="#F3F8FF"/>
<path d="M85.7146 175.586H71.8744C71.3992 175.586 70.9834 175.169 70.9834 174.693C70.9834 174.216 71.3992 173.799 71.8744 173.799H85.774C86.2492 173.799 86.665 174.216 86.665 174.693C86.665 175.169 86.2492 175.586 85.7146 175.586Z" fill="#F3F8FF"/>
<path d="M202.732 13.1079H91.001V93.6023H202.732V13.1079Z" fill="#D1E3FF"/>
<path d="M204.633 13.1079H91.8916V93.6023H204.633V13.1079Z" fill="#F3F8FF"/>
<path d="M202.732 93.6023H91.001V95.3897H202.732V93.6023Z" fill="#D1E3FF"/>
<path d="M213.187 93.6023H104.544V95.3897H213.187V93.6023Z" fill="#F3F8FF"/>
<path d="M201.961 90.2053V16.5032L94.4469 16.5032L94.4469 90.2053L201.961 90.2053Z" fill="#F5FCFF"/>
<path d="M123.73 90.206L139.115 16.5039H158.776L143.392 90.206H123.73Z" fill="white"/>
<path d="M148.916 90.206L164.301 16.5039H173.389L158.004 90.206H148.916Z" fill="white"/>
<path d="M201.987 82.4835V16.0503H201.631V82.4835H201.987Z" fill="#D1E3FF"/>
<path d="M89.04 12.9889V41.6475H96.5838C96.5838 41.6475 110.186 32.7699 113.275 14.4784C113.572 12.6314 112.147 10.9036 110.305 10.9036H91.119C89.931 10.9036 89.04 11.8569 89.04 12.9889Z" fill="#D1E3FF"/>
<path d="M89.04 87.5847V43.9712H96.5839C96.5839 43.9712 100.92 52.7892 105.256 62.918C110.246 74.596 101.692 87.5847 89.04 87.5847Z" fill="#D1E3FF"/>
<path d="M96.3466 43.9711H89.2781C88.8623 43.9711 88.5059 43.6136 88.5059 43.1966V42.422C88.5059 42.0049 88.8623 41.6475 89.2781 41.6475H96.3466C96.7624 41.6475 97.1189 42.0049 97.1189 42.422V43.1966C97.1189 43.6136 96.7624 43.9711 96.3466 43.9711Z" fill="#F3F8FF"/>
<path d="M206.772 12.9889V41.6475H199.228C199.228 41.6475 185.625 32.7699 182.536 14.4784C182.239 12.6314 183.665 10.9036 185.506 10.9036H204.693C205.821 10.9036 206.772 11.8569 206.772 12.9889Z" fill="#D1E3FF"/>
<path d="M206.772 87.5847V43.9712H199.228C199.228 43.9712 194.892 52.7892 190.556 62.918C185.507 74.596 194.06 87.5847 206.772 87.5847Z" fill="#D1E3FF"/>
<path d="M199.406 43.9711H206.475C206.89 43.9711 207.247 43.6136 207.247 43.1966V42.422C207.247 42.0049 206.89 41.6475 206.475 41.6475H199.406C198.99 41.6475 198.634 42.0049 198.634 42.422V43.1966C198.634 43.6136 198.99 43.9711 199.406 43.9711Z" fill="#F3F8FF"/>
<path d="M261.004 22.2834H223.879V77.8728H261.004V22.2834Z" fill="#D1E3FF"/>
<path d="M266.35 22.2834H224.829V77.8728H266.35V22.2834Z" fill="#F3F8FF"/>
<path d="M262.079 73.5521V26.5425L229.112 26.5425V73.5521H262.079Z" fill="white"/>
<path d="M242.472 54.5764V51.8952C242.472 48.3799 245.323 45.5796 248.768 45.5796V48.2607C248.768 51.7165 245.917 54.5764 242.472 54.5764Z" fill="#D1E3FF"/>
<path d="M242.472 67.2673V64.5861C242.472 61.0708 245.323 58.2705 248.768 58.2705V60.9517C248.768 64.4074 245.917 67.2673 242.472 67.2673Z" fill="#D1E3FF"/>
<path d="M242.472 41.8857V39.2045C242.472 35.6892 245.323 32.8889 248.768 32.8889V35.5701C248.768 39.0854 245.917 41.8857 242.472 41.8857Z" fill="#D1E3FF"/>
<path d="M54.1136 141.506C55.5986 125.895 56.9648 82.4009 56.0738 74.5957L53.9948 73.0466C53.9948 73.0466 54.6482 101.467 53.5196 125.359C52.391 149.251 53.3414 137.99 52.8662 141.506H54.1136Z" fill="#D1E3FF"/>
<path d="M59.9343 110.524C64.1517 107.247 72.7053 104.863 81.4371 104.863C84.8823 104.863 71.0421 108.676 65.2803 112.907C60.8253 116.184 55.7763 121.725 54.0537 124.823C55.1229 118.388 55.7169 113.8 59.9343 110.524Z" fill="#D1E3FF"/>
<path d="M51.6185 115.409C48.1139 111.953 40.0949 109.332 31.4225 109.034C28.0367 108.915 40.9859 113.204 45.8567 117.673C49.5989 121.129 53.4599 126.789 54.5291 129.947C54.7667 123.393 55.1231 118.805 51.6185 115.409Z" fill="#D1E3FF"/>
<path d="M60.1125 87.2272C63.6765 84.4269 70.9233 82.4607 78.2889 82.4607C81.1995 82.4607 69.4383 85.7377 64.5675 89.3125C60.7659 92.1129 56.4891 96.7602 55.0635 99.3818C56.0139 93.9003 56.5485 90.0275 60.1125 87.2272Z" fill="#D1E3FF"/>
<path d="M53.1031 91.3383C50.1331 88.4188 43.3615 86.2143 35.9959 85.9164C33.0853 85.7972 44.0743 89.4913 48.2323 93.1853C51.4399 96.1048 54.7069 100.931 55.5979 103.552C55.7167 98.1306 56.0137 94.2578 53.1031 91.3383Z" fill="#D1E3FF"/>
<path d="M54.7667 70.0677C52.6877 67.6845 47.5793 65.6587 41.9957 65.182C39.7979 65.0033 47.9951 68.2803 50.9057 71.3189C53.1629 73.7022 55.4201 77.575 55.9547 79.6007C56.4299 75.43 56.9051 72.451 54.7667 70.0677Z" fill="#D1E3FF"/>
<path d="M56.1326 71.6169C57.677 69.5912 61.241 67.8037 65.2208 67.3271C66.7652 67.1483 60.944 70.0082 58.8056 72.6894C57.1424 74.7152 55.5386 78.0517 55.1228 79.8391C54.8852 76.2047 54.6476 73.7023 56.1326 71.6169Z" fill="#D1E3FF"/>
<path d="M53.8168 152.23C58.3906 152.23 62.1922 148.656 62.4892 144.068L63.2614 136.739H44.4316L45.2038 144.068C45.4414 148.596 49.243 152.23 53.8168 152.23Z" fill="#E3EEFF"/>
<path d="M43.1838 139.718H64.449L65.1024 134.177H42.5898L43.1838 139.718Z" fill="#E3EEFF"/>
<path d="M148.5 222C212.11 222 263.676 218.986 263.676 215.267C263.676 211.549 212.11 208.535 148.5 208.535C84.8896 208.535 33.3232 211.549 33.3232 215.267C33.3232 218.986 84.8896 222 148.5 222Z" fill="#F0F6FF"/>
<path d="M148.976 205.377L144.937 203.768L147.55 193.997L151.589 195.606L148.976 205.377Z" fill="#FFC3BD"/>
<path d="M189.427 209.905H185.091L181.705 199.836H186.041L189.427 209.905Z" fill="#FFC3BD"/>
<path d="M184.497 209.369H189.783C189.961 209.369 190.14 209.488 190.14 209.667L190.971 213.54C191.031 213.957 190.734 214.314 190.318 214.314C188.595 214.314 187.407 214.195 185.269 214.195C183.962 214.195 179.982 214.314 178.141 214.314C176.359 214.314 176.062 212.527 176.834 212.348C180.161 211.633 182.655 210.62 183.724 209.667C183.962 209.488 184.259 209.369 184.497 209.369Z" fill="#14365B"/>
<path d="M145.174 203.351L149.569 205.079C149.748 205.139 149.807 205.317 149.807 205.496L149.213 209.428C149.154 209.845 148.738 210.084 148.322 209.905C146.718 209.25 144.52 208.237 142.501 207.462C140.184 206.509 138.105 205.854 135.373 204.781C133.71 204.126 133.947 202.279 134.66 202.398C138.105 202.934 140.659 203.887 144.045 203.292C144.461 203.232 144.817 203.172 145.174 203.351Z" fill="#14365B"/>
<path d="M175.171 79.3028C174.755 79.6007 174.458 79.8391 174.102 80.137C173.745 80.3753 173.389 80.6136 173.033 80.9115C172.32 81.3882 171.607 81.8648 170.894 82.3415C169.409 83.2352 167.865 84.0693 166.261 84.7843C164.657 85.4993 162.935 86.0951 161.093 86.5122C159.252 86.9292 157.292 87.108 155.213 86.8101C154.678 86.7505 154.203 86.6313 153.609 86.4526C152.48 86.0951 151.827 85.4993 151.352 85.0226C150.401 84.0098 149.985 83.116 149.57 82.2819C148.738 80.554 148.263 78.9453 147.847 77.2771C147.015 74.0001 146.54 70.7827 146.243 67.4462L149.451 66.8503C150.461 69.8294 151.47 72.8681 152.599 75.728C153.193 77.1579 153.787 78.5283 154.5 79.6603C154.856 80.1966 155.213 80.7328 155.45 80.8519C155.51 80.9115 155.569 80.8519 155.213 80.7328C155.391 80.7328 155.688 80.7924 155.985 80.8519C157.054 80.9115 158.361 80.7328 159.668 80.3753C160.974 80.0178 162.281 79.4816 163.588 78.8262C164.895 78.1708 166.202 77.4558 167.449 76.6813C168.102 76.2642 168.696 75.9067 169.35 75.4896L170.241 74.8342C170.538 74.6555 170.894 74.4172 171.072 74.2384L175.171 79.3028Z" fill="#FFC3BD"/>
<path d="M177.903 78.2304C176.834 82.2223 163.885 86.7505 163.885 86.7505L159.905 77.6941C159.905 77.6941 165.192 74.8938 170.063 72.6893C173.27 71.1998 179.032 73.8213 177.903 78.2304Z" fill="#407BFF"/>
<path d="M149.51 67.4463L149.629 63.5735L144.937 64.9439C144.937 64.9439 144.996 66.9696 146.719 68.2804L149.51 67.4463Z" fill="#FFC3BD"/>
<path d="M149.807 60.8923L145.293 62.4415L144.877 64.9439L149.57 63.5735L149.807 60.8923Z" fill="#FFC3BD"/>
<path d="M148.975 70.0677L153.43 69.0548C153.727 68.9952 153.905 68.6973 153.787 68.3994L149.926 58.0322C149.807 57.7343 149.45 57.5556 149.153 57.6152L144.698 58.6281C144.401 58.6876 144.223 58.9855 144.342 59.2835L148.203 69.6506C148.322 69.9485 148.678 70.1273 148.975 70.0677Z" fill="#0053CC"/>
<path d="M149.509 69.9485L153.964 68.9357C154.261 68.8761 154.439 68.5782 154.321 68.2803L150.46 57.9131C150.341 57.6152 149.984 57.4365 149.687 57.496L145.232 58.5089C144.935 58.5685 144.757 58.8664 144.876 59.1643L148.737 69.5315C148.856 69.8294 149.212 70.0081 149.509 69.9485Z" fill="#407BFF"/>
<path d="M144.995 59.5217L146.718 64.1691L146.896 64.5861L147.668 66.6715L147.846 67.1481L148.5 68.8164L154.024 67.5652L153.905 67.1481L153.727 66.731L152.242 62.6795L151.767 61.4283L150.579 58.2705L148.737 58.6876L148.262 58.8067L145.767 59.343L145.352 59.4621L144.995 59.5217Z" fill="#DCE9FF"/>
<path d="M148.619 61.4284L148.143 65.2416C148.084 65.5395 148.381 65.7778 148.678 65.7183L151.707 65.0033C152.004 64.9437 152.183 64.5266 151.945 64.2883L149.391 61.1305C149.153 60.8922 148.678 61.0113 148.619 61.4284Z" fill="#407BFF"/>
<path d="M150.222 64.4073C150.281 64.586 150.222 64.8243 150.044 64.8243C149.865 64.8839 149.687 64.7052 149.628 64.5264C149.568 64.3477 149.628 64.1094 149.806 64.1094C149.984 64.1094 150.162 64.169 150.222 64.4073Z" fill="white"/>
<path d="M149.866 63.6925L149.628 63.752C149.569 63.752 149.509 63.6925 149.509 63.6329L149.034 62.2625C149.034 62.2029 149.034 62.0838 149.094 62.0838L149.509 61.9646C149.569 61.9646 149.628 62.0242 149.628 62.0838L149.985 63.5137C149.985 63.6329 149.925 63.6925 149.866 63.6925Z" fill="white"/>
<path d="M147.55 193.997L146.243 199.061L150.223 200.67L151.589 195.606L147.55 193.997Z" fill="#F29994"/>
<path d="M186.041 199.836H181.705L183.428 205.02H187.764L186.041 199.836Z" fill="#F29994"/>
<path d="M195.366 76.3832C193.525 81.0305 192.159 85.797 191.089 90.2656C190.317 93.5426 189.723 96.76 189.248 99.6199C188.179 106.353 187.763 111.536 187.347 113.264C184.021 112.668 171.428 110.404 164.538 109.153C164.062 84.2479 171.428 72.2721 171.428 72.2721C171.428 72.2721 174.042 72.0337 177.012 72.2125C177.427 72.2125 177.784 72.2721 178.2 72.2721C180.813 72.5104 185.031 73.3445 187.882 73.9999C188.476 74.1191 189.129 74.2978 189.664 74.4766C192.753 75.3703 195.366 76.3832 195.366 76.3832Z" fill="#407BFF"/>
<path d="M188.892 81.9839C188.476 85.8567 189.189 89.1932 190.674 92.2915C190.792 91.6361 190.971 90.9807 191.089 90.3253C191.683 87.8229 192.337 85.2609 193.168 82.6989L188.892 81.9839Z" fill="#2B6AD8"/>
<path d="M188.892 62.918C187.704 65.9566 186.1 71.5573 187.882 74.0001C185.981 75.3705 183.368 76.3238 179.863 75.6088C177.19 75.0726 177.368 73.166 178.2 72.2127C181.823 72.0339 182.18 69.4123 182.001 66.8503L188.892 62.918Z" fill="#FFC3BD"/>
<path d="M186.101 64.5862L182.062 66.9694C182.121 67.5652 182.121 68.1611 182.062 68.7569C183.428 68.8165 185.507 67.6844 185.923 66.314C186.101 65.5991 186.16 64.9437 186.101 64.5862Z" fill="#F29994"/>
<path d="M178.378 52.7295C177.428 54.6361 177.012 60.6539 179.685 59.7601C182.358 58.8664 182.239 54.2787 182.239 54.2787C182.239 54.2787 180.576 48.2014 178.378 52.7295Z" fill="#0F264C"/>
<path d="M190.14 58.2707C189.13 62.4414 188.714 64.9438 186.22 66.7313C182.418 69.4124 177.547 66.5525 177.31 62.1435C177.072 58.1516 178.795 52.0147 183.19 51.0614C187.586 50.1677 191.15 54.1 190.14 58.2707Z" fill="#FFC3BD"/>
<path d="M188.001 54.8743C185.566 56.3639 185.982 61.1304 189.368 62.3816C192.753 63.6328 193.466 61.1899 192.932 60.892C194.12 60.6537 198.693 58.5684 196.852 54.8743C195.723 52.6102 192.397 52.9677 192.397 52.9677C192.397 52.9677 196.377 49.0354 190.08 45.8775C182.418 42.0048 181.23 49.0949 181.23 49.0949C181.23 49.0949 176.3 48.5587 176.715 51.8357C177.25 56.1851 181.883 52.7294 181.883 52.7294C181.883 52.7294 182.18 56.6022 188.001 54.8743Z" fill="#0F264C"/>
<path d="M181.467 50.8229C181.349 50.8229 181.289 50.7633 181.23 50.6442C181.17 50.525 180.101 47.3672 181.764 45.3414C182.834 44.0306 184.734 43.4944 187.467 43.7327C187.586 43.7327 187.704 43.8519 187.645 43.9711C187.645 44.0902 187.526 44.2094 187.407 44.1498C184.853 43.9115 183.071 44.3881 182.121 45.5798C180.636 47.4268 181.646 50.4654 181.705 50.4654C181.764 50.5846 181.705 50.7037 181.586 50.7633C181.527 50.8229 181.527 50.8229 181.467 50.8229Z" fill="#0F264C"/>
<path d="M191.209 63.3349C190.437 64.2286 189.308 64.6456 188.358 64.6456C186.932 64.7052 186.516 63.3349 187.229 62.1432C187.823 61.0708 189.308 59.76 190.615 60.2962C191.922 60.7729 192.1 62.322 191.209 63.3349Z" fill="#FFC3BD"/>
<path d="M145.055 197.512L151.886 200.193C151.886 200.193 159.845 173.68 162.518 160.453C163.35 156.401 165.013 150.86 167.033 144.961C169.587 137.514 172.616 129.47 175.052 123.155C177.606 116.541 179.566 111.834 179.566 111.834L164.597 109.153C164.597 109.153 151.589 143.949 149.688 157.056C147.787 170.76 145.055 197.512 145.055 197.512Z" fill="#9FC6FF"/>
<path d="M167.093 144.961C169.647 137.514 172.676 129.47 175.112 123.155L173.924 119.58C169.647 123.691 167.152 137.395 167.093 144.961Z" fill="#77B3FC"/>
<path d="M172.676 110.643C172.676 110.643 170.3 147.762 170.775 160.453C171.309 174.395 181.407 203.947 181.407 203.947H189.308C189.308 203.947 184.199 177.314 183.13 163.789C181.942 148.358 187.347 113.264 187.347 113.264L172.676 110.643Z" fill="#9FC6FF"/>
<path d="M180.458 204.185H189.783V201.385L179.329 201.206L180.458 204.185Z" fill="#407BFF"/>
<path d="M144.164 197.333L152.302 200.551L153.312 197.929L144.283 194.176L144.164 197.333Z" fill="#407BFF"/>
<path d="M183.546 58.3301C183.487 58.6875 183.249 58.9259 183.011 58.8663C182.774 58.8067 182.655 58.5088 182.714 58.1513C182.774 57.7938 183.011 57.5555 183.249 57.6151C183.427 57.6747 183.605 57.9726 183.546 58.3301Z" fill="#0F264C"/>
<path d="M179.626 57.6152C179.567 57.9727 179.329 58.211 179.091 58.1514C178.854 58.0919 178.735 57.794 178.794 57.4365C178.854 57.079 179.091 56.8407 179.329 56.9002C179.567 56.9598 179.685 57.2577 179.626 57.6152Z" fill="#0F264C"/>
<path d="M180.814 58.0322C180.814 58.0322 179.685 59.8792 178.616 60.7134C179.151 61.3688 180.22 61.3092 180.22 61.3092L180.814 58.0322Z" fill="#ED847E"/>
<path d="M182.714 63.7522C182.655 63.7522 182.596 63.6926 182.596 63.6926C182.596 63.633 182.596 63.5734 182.655 63.5734C183.249 63.4542 183.249 63.3351 183.249 63.3351C183.249 63.3351 183.011 62.9776 181.645 62.918C181.586 62.918 181.526 62.8584 181.526 62.7989C181.526 62.7393 181.586 62.6797 181.645 62.6797C183.011 62.7393 183.308 63.0968 183.427 63.2159C183.487 63.2755 183.487 63.3351 183.487 63.3947C183.487 63.5138 183.249 63.633 182.714 63.7522Z" fill="#0F264C"/>
<path d="M184.972 57.3174C184.913 57.3174 184.853 57.2578 184.794 57.1982C184.378 56.3641 183.665 56.3045 183.606 56.3045C183.487 56.3045 183.428 56.1854 183.428 56.0662C183.428 55.947 183.547 55.8875 183.665 55.8875C183.725 55.8875 184.616 56.0066 185.15 57.0195C185.21 57.1387 185.15 57.2578 185.032 57.3174C185.032 57.2578 184.972 57.3174 184.972 57.3174Z" fill="#0F264C"/>
<path d="M178.2 56.0066C178.14 56.0066 178.14 56.0066 178.081 55.947C177.962 55.8874 177.962 55.7683 178.021 55.6491C178.675 54.7554 179.625 54.7554 179.685 54.7554C179.803 54.7554 179.863 54.8745 179.863 54.9937C179.863 55.1129 179.803 55.1724 179.625 55.1724C179.625 55.1724 178.853 55.1724 178.318 55.8874C178.318 55.947 178.259 56.0066 178.2 56.0066Z" fill="#0F264C"/>
<path d="M183.071 210.143C182.715 210.143 182.418 210.084 182.24 209.905C182.061 209.786 182.002 209.607 182.002 209.369C182.002 209.19 182.121 209.13 182.18 209.071C182.655 208.833 184.081 209.667 184.2 209.786C184.259 209.786 184.259 209.845 184.259 209.905C184.259 209.965 184.2 209.965 184.2 209.965C183.903 210.024 183.487 210.143 183.071 210.143ZM182.418 209.25C182.358 209.25 182.299 209.25 182.299 209.25C182.299 209.25 182.24 209.309 182.24 209.369C182.24 209.548 182.299 209.667 182.358 209.726C182.596 209.905 183.131 209.965 183.903 209.786C183.428 209.548 182.774 209.25 182.418 209.25Z" fill="#407BFF"/>
<path d="M184.2 209.964C184.14 209.964 184.14 209.964 184.2 209.964C183.724 209.726 182.833 208.773 182.952 208.296C182.952 208.237 183.012 208.058 183.249 207.998C183.427 207.998 183.546 207.998 183.665 208.117C184.14 208.535 184.259 209.786 184.259 209.845C184.259 209.905 184.259 209.964 184.2 209.964ZM183.309 208.237C183.309 208.237 183.249 208.237 183.309 208.237C183.13 208.237 183.13 208.296 183.13 208.356C183.071 208.654 183.606 209.369 184.081 209.726C184.021 209.369 183.903 208.654 183.546 208.356C183.487 208.237 183.368 208.237 183.309 208.237Z" fill="#407BFF"/>
<path d="M144.579 203.768C144.579 203.768 144.52 203.768 144.579 203.768C143.866 203.649 142.619 203.351 142.381 202.755C142.322 202.577 142.322 202.398 142.381 202.219C142.441 202.1 142.5 202.04 142.619 202.04H142.678C143.272 202.04 144.52 203.411 144.639 203.589C144.639 203.649 144.698 203.649 144.639 203.709L144.579 203.768ZM142.678 202.219C142.619 202.219 142.619 202.219 142.678 202.219C142.619 202.219 142.56 202.279 142.56 202.279C142.5 202.398 142.5 202.517 142.56 202.636C142.738 202.934 143.391 203.232 144.342 203.47C143.748 202.934 142.975 202.219 142.678 202.219Z" fill="#407BFF"/>
<path d="M144.579 203.768C144.579 203.768 144.52 203.768 144.52 203.709C144.104 203.292 143.51 202.04 143.748 201.623C143.807 201.504 143.926 201.445 144.223 201.504C144.401 201.564 144.579 201.683 144.698 201.862C145.054 202.457 144.698 203.589 144.698 203.649C144.639 203.709 144.639 203.709 144.579 203.768C144.579 203.709 144.579 203.768 144.579 203.768ZM143.985 201.683C143.926 201.683 143.866 201.742 143.866 201.742C143.688 201.981 144.104 202.934 144.46 203.411C144.52 203.053 144.639 202.338 144.401 201.981C144.342 201.862 144.223 201.742 144.045 201.683C144.104 201.683 144.045 201.683 143.985 201.683Z" fill="#407BFF"/>
<path d="M195.486 78.4089C196.08 79.0643 196.555 79.6601 197.03 80.3155C197.506 80.9709 197.981 81.6263 198.456 82.2817C199.406 83.5925 200.297 84.9629 201.129 86.3928C201.961 87.7632 202.733 89.2527 203.505 90.7423L204.04 91.8743L204.515 93.0659C204.693 93.4234 204.812 93.8405 204.99 94.2576L205.228 94.8534L205.287 95.0321L205.346 95.2704C205.406 95.4492 205.465 95.6279 205.465 95.8067C205.703 97.2366 205.584 98.2495 205.406 99.2028C205.228 100.156 204.99 100.99 204.693 101.824C204.158 103.433 203.446 104.982 202.733 106.412C201.307 109.332 199.644 112.013 197.743 114.634L194.892 113.026C196.08 110.225 197.209 107.306 198.159 104.506C198.634 103.076 199.05 101.646 199.347 100.335C199.525 99.6795 199.644 98.9645 199.644 98.3687C199.703 97.7729 199.644 97.2366 199.585 97.1175C199.585 97.1175 199.585 97.177 199.585 97.1175L199.525 96.9983L199.288 96.5217C199.169 96.2237 198.991 95.8663 198.812 95.5683L198.337 94.6151L197.803 93.6617C197.09 92.4105 196.318 91.1593 195.486 89.9081C194.654 88.6569 193.823 87.4653 192.932 86.2141C192.1 85.0225 191.15 83.7713 190.259 82.6988L195.486 78.4089Z" fill="#FFC3BD"/>
<path d="M194.238 76.0258C198.337 76.6216 203.742 85.9163 203.742 85.9163L196.02 94.3172C196.02 94.3172 191.803 88.8953 189.367 84.1288C186.694 78.8857 189.249 75.3108 194.238 76.0258Z" fill="#407BFF"/>
<path d="M195.783 112.251L191.981 114.515L196.496 117.673C196.496 117.673 199.288 115.052 198.1 113.383L195.783 112.251Z" fill="#FFC3BD"/>
<path d="M190.674 117.852L194.535 120.295L196.554 117.613L192.04 114.456L190.674 117.852Z" fill="#FFC3BD"/>
<path d="M152.123 58.5091H151.529C151.529 57.377 150.579 56.4237 149.45 56.4237V55.8279C150.935 55.8279 152.123 57.0791 152.123 58.5091Z" fill="#407BFF"/>
<path d="M153.311 58.509H152.717C152.717 56.7216 151.232 55.232 149.45 55.232V54.6362C151.589 54.6362 153.311 56.4237 153.311 58.509Z" fill="#407BFF"/>
<path d="M154.499 58.509H153.905C153.905 56.0662 151.886 54.0404 149.45 54.0404V53.4446C152.242 53.4446 154.499 55.7683 154.499 58.509Z" fill="#407BFF"/>
<path d="M149.034 72.4512C147.549 72.4512 146.361 71.2596 146.361 69.77H146.955C146.955 70.9021 147.906 71.8554 149.034 71.8554V72.4512Z" fill="#407BFF"/>
<path d="M149.035 73.6428C146.896 73.6428 145.174 71.9149 145.174 69.77H145.768C145.768 71.5575 147.253 73.047 149.035 73.047V73.6428Z" fill="#407BFF"/>
<path d="M149.034 74.8344C146.243 74.8344 143.985 72.5703 143.985 69.77H144.579C144.579 72.2129 146.599 74.2386 149.034 74.2386V74.8344Z" fill="#407BFF"/>
</g>
<defs>
<clipPath id="clip0">
<rect width="297" height="222" fill="white"/>
</clipPath>
</defs>
</svg>
