<svg width="60" height="60" viewBox="0 0 60 60" fill="none" xmlns="http://www.w3.org/2000/svg">
<g style="mix-blend-mode:luminosity">
<path d="M60 30C60 39.6 55.4906 48.1465 48.4746 53.6379C44.018 57.1254 38.5512 59.3801 32.5863 59.8898C31.7344 59.9625 30.8719 60 30 60H29.9988C29.1281 60 28.2656 59.9625 27.4125 59.8898C21.4465 59.3812 15.9785 57.1254 11.523 53.6355C4.5082 48.1441 0 39.5988 0 30C0 13.432 13.432 0 30 0C46.568 0 60 13.432 60 30Z" fill="#ECC32E"/>
<path d="M44.0001 46.0818C42.7869 46.8957 41.4992 47.6074 40.1485 48.2022C39.1015 48.6642 38.0172 49.0574 36.9014 49.3739C34.7092 49.9982 32.3942 50.3324 30.0005 50.3324C27.6078 50.3324 25.2927 49.9982 23.0996 49.3748C22.3879 49.1723 21.6879 48.9383 21.0027 48.6749C20.9604 48.6592 20.9182 48.6435 20.8759 48.6267C20.5309 48.493 20.1898 48.3505 19.8525 48.202C18.5018 47.6064 17.2141 46.8956 16 46.0806C17.0214 44.668 18.3357 43.4824 19.8525 42.6084C20.8552 42.0314 21.9464 41.592 23.0996 41.3157C23.2775 41.2725 23.4573 41.2331 23.6383 41.1988C23.9794 41.132 24.3264 41.0808 24.6774 41.0445C24.7786 41.0337 24.8789 41.0238 24.9811 41.016C25.3134 40.9884 25.6496 40.9747 25.9898 40.9747H34.0104C34.4548 40.9747 34.8923 40.9983 35.3228 41.0435C35.6738 41.0798 36.0198 41.132 36.3619 41.1969C36.4985 41.2234 36.6342 41.252 36.7689 41.2825C36.8132 41.2943 36.8583 41.3031 36.9017 41.3149C38.0557 41.5922 39.1459 42.0315 40.1487 42.6086C41.6653 43.4836 42.9787 44.6692 44.0001 46.0818Z" fill="#F6F1F1"/>
<path d="M25.9898 40.9749C23.1036 40.9749 21.1473 45.146 21.0027 48.6751C20.9604 48.6594 20.9182 48.6437 20.8759 48.6269C20.5309 48.4932 20.1898 48.3507 19.8525 48.2022C18.5018 47.6066 17.2141 46.8958 16 46.0808C17.0214 44.6682 18.3357 43.4826 19.8525 42.6086C20.8552 42.0316 21.9464 41.5921 23.0996 41.3159C23.2775 41.2727 23.4573 41.2333 23.6383 41.199C23.9794 41.1322 24.3264 41.081 24.6774 41.0446C24.7786 41.0339 24.8789 41.024 24.9811 41.0162C25.3134 40.9887 25.6496 40.9749 25.9898 40.9749Z" fill="#DFEAEF"/>
<path d="M29.9984 46.0181L24.7889 48.9132L23.2041 41.0503L26.4412 39.6354" fill="#DFEAEF"/>
<path d="M29.999 46.0181L35.2086 48.9132L36.7933 41.0503L33.5564 39.6354" fill="#DFEAEF"/>
<path d="M34.3961 36.2297V41.6236C34.3961 43.5984 33.094 45.2676 31.3005 45.8219C30.89 45.9493 30.4525 46.0182 30 46.0182C27.5727 46.0182 25.6055 44.051 25.6055 41.6236V36.2297H34.3961Z" fill="#EAAC9D"/>
<path d="M34.3953 41.2818V41.6234C34.3953 43.5981 33.0932 45.2673 31.2998 45.8216C29.6816 45.3242 28.465 43.9173 28.2402 42.1957C28.5339 42.2137 28.8291 42.2227 29.1257 42.2227C29.9573 42.2227 30.7723 42.1567 31.5665 42.0264C32.5449 41.8691 33.4903 41.6174 34.3953 41.2818Z" fill="#FFCBBE"/>
<path d="M17.8639 27.3443C17.8639 29.3593 16.392 31.03 14.4646 31.3401C14.2539 31.3742 14.0373 31.392 13.8162 31.392C11.5802 31.392 9.76855 29.5804 9.76855 27.3443C9.76855 25.1083 11.5802 23.2967 13.8162 23.2967C14.0373 23.2967 14.2539 23.3145 14.4646 23.3486C16.392 23.6588 17.8639 25.3294 17.8639 27.3443Z" fill="#FFCBBE"/>
<path d="M17.8631 27.3444C17.8631 29.3593 16.3912 31.03 14.4638 31.3401C14.1137 30.0671 13.9268 28.7273 13.9268 27.3444C13.9268 25.9616 14.1137 24.6218 14.4638 23.3486C16.3912 23.6588 17.8631 25.3295 17.8631 27.3444Z" fill="#EAAC9D"/>
<path d="M13.8158 28.791C14.6148 28.791 15.2625 28.1433 15.2625 27.3443C15.2625 26.5453 14.6148 25.8976 13.8158 25.8976C13.0168 25.8976 12.3691 26.5453 12.3691 27.3443C12.3691 28.1433 13.0168 28.791 13.8158 28.791Z" fill="#EAAC9D"/>
<path d="M42.1357 27.3443C42.1357 29.3593 43.6076 31.03 45.535 31.3401C45.7457 31.3742 45.9623 31.392 46.1834 31.392C48.4195 31.392 50.2311 29.5804 50.2311 27.3443C50.2311 25.1083 48.4195 23.2967 46.1834 23.2967C45.9623 23.2967 45.7457 23.3145 45.535 23.3486C43.6076 23.6588 42.1357 25.3294 42.1357 27.3443Z" fill="#FFCBBE"/>
<path d="M42.1357 27.3444C42.1357 29.3593 43.6076 31.03 45.535 31.3401C45.8852 30.0671 46.0721 28.7273 46.0721 27.3444C46.0721 25.9616 45.8852 24.6218 45.535 23.3486C43.6076 23.6588 42.1357 25.3295 42.1357 27.3444Z" fill="#EAAC9D"/>
<path d="M46.183 28.791C46.982 28.791 47.6297 28.1433 47.6297 27.3443C47.6297 26.5453 46.982 25.8976 46.183 25.8976C45.384 25.8976 44.7363 26.5453 44.7363 27.3443C44.7363 28.1433 45.384 28.791 46.183 28.791Z" fill="#EAAC9D"/>
<path d="M45.2077 25.2168C45.2077 32.7848 39.6789 39.0626 32.4405 40.2284C31.6465 40.3587 30.8313 40.4247 29.9998 40.4247C21.6002 40.4247 14.792 33.6164 14.792 25.2169V9.73401H45.2077V25.2168Z" fill="#FFCBBE"/>
<path d="M32.6785 40.1885C32.5998 40.2022 32.5201 40.216 32.4406 40.2288C31.6463 40.3585 30.8313 40.4244 29.9997 40.4244C21.6005 40.4244 14.792 33.6168 14.792 25.2167V9.73376H20.1545V25.2167C20.1544 32.7017 25.5592 38.9214 32.6785 40.1885Z" fill="#EAAC9D"/>
<path d="M45.208 23.4157L44.5654 13.7969C34.9587 17.0511 28.5595 18.5873 24.501 17.8937C30.1899 16.8066 31.8331 13.2141 31.8331 13.2141C31.8331 13.2141 28.1047 15.6227 24.0694 16.4244C22.1767 16.8 20.2553 15.8222 19.4974 14.0469C19.4919 14.0373 19.4878 14.0264 19.4837 14.0169C19.4837 14.0169 19.5744 23.4158 14.7922 23.4158C14.7922 23.4158 8.35428 2.27293 18.5278 5.27715C18.5278 5.27715 21.4706 2.57469 25.8637 1.03836C25.8801 1.03286 25.8965 1.02747 25.9142 1.02067C25.962 1.00286 26.0111 0.986567 26.0604 0.971449C26.1123 0.955043 26.1614 0.938637 26.2079 0.922231C30.8537 -0.609996 37.0248 -0.769839 43.0401 4.79903C54.989 15.8602 45.208 23.4157 45.208 23.4157Z" fill="#2F373B"/>
<path d="M24.0693 16.4242C22.1766 16.7997 20.2552 15.8219 19.4974 14.0467C19.4919 14.0371 19.4878 14.0262 19.4837 14.0167C19.4837 14.0167 19.5744 23.4156 14.7922 23.4156C14.7922 23.4156 8.35428 2.27272 18.5278 5.27694C18.5278 5.27694 21.4706 2.57447 25.8637 1.03815C19.8348 3.23401 21.4242 16.4242 24.0693 16.4242Z" fill="#181E21"/>
<path d="M29.9999 34.9786C28.7264 34.9786 27.453 34.6595 26.2922 34.0214C25.9647 33.8414 25.8452 33.43 26.0252 33.1026C26.2052 32.7752 26.6167 32.6558 26.944 32.8357C28.8574 33.8877 31.1422 33.8875 33.0556 32.8357C33.3828 32.6557 33.7943 32.7751 33.9744 33.1026C34.1544 33.43 34.0349 33.8414 33.7074 34.0214C32.5467 34.6595 31.2732 34.9786 29.9999 34.9786Z" fill="#DF9380"/>
<path d="M31.7246 30.4333H28.2744C27.8634 30.4333 27.5303 30.1002 27.5303 29.6892C27.5303 29.2782 27.8634 28.9451 28.2744 28.9451H31.7246C32.1356 28.9451 32.4688 29.2782 32.4688 29.6892C32.4688 30.1002 32.1356 30.4333 31.7246 30.4333Z" fill="#EAAC9D"/>
<path d="M32.4912 26.2521C32.4912 27.9395 33.8591 29.3074 35.5465 29.3074C37.2339 29.3074 38.6018 27.9395 38.6018 26.2521" fill="#EAAC9D"/>
<path d="M35.5464 28.4431C36.7564 28.4431 37.7373 27.4622 37.7373 26.2522C37.7373 25.0421 36.7564 24.0612 35.5464 24.0612C34.3364 24.0612 33.3555 25.0421 33.3555 26.2522C33.3555 27.4622 34.3364 28.4431 35.5464 28.4431Z" fill="#2F373B"/>
<path d="M36.4603 26.8043C36.9788 26.8043 37.3991 26.384 37.3991 25.8655C37.3991 25.3471 36.9788 24.9268 36.4603 24.9268C35.9418 24.9268 35.5215 25.3471 35.5215 25.8655C35.5215 26.384 35.9418 26.8043 36.4603 26.8043Z" fill="white"/>
<path d="M21.3975 26.2521C21.3975 27.9395 22.7654 29.3074 24.4528 29.3074C26.1402 29.3074 27.5081 27.9395 27.5081 26.2521" fill="#EAAC9D"/>
<path d="M24.4527 28.4431C25.6627 28.4431 26.6436 27.4622 26.6436 26.2522C26.6436 25.0421 25.6627 24.0612 24.4527 24.0612C23.2426 24.0612 22.2617 25.0421 22.2617 26.2522C22.2617 27.4622 23.2426 28.4431 24.4527 28.4431Z" fill="#2F373B"/>
<path d="M24.965 28.3824C24.8008 28.4228 24.6288 28.4434 24.4529 28.4434C23.2428 28.4434 22.2617 27.4623 22.2617 26.2522C22.2617 25.0421 23.2428 24.061 24.4529 24.061C24.6289 24.061 24.8009 24.0817 24.965 24.122C24.0016 24.352 23.287 25.2191 23.287 26.2522C23.287 27.2853 24.0016 28.1524 24.965 28.3824Z" fill="#181E21"/>
<path d="M36.0589 28.3824C35.8947 28.4228 35.7227 28.4434 35.5466 28.4434C34.3366 28.4434 33.3555 27.4623 33.3555 26.2522C33.3555 25.0421 34.3366 24.061 35.5466 24.061C35.7227 24.061 35.8947 24.0817 36.0589 24.122C35.0955 24.352 34.3809 25.2191 34.3809 26.2522C34.3809 27.2853 35.0955 28.1524 36.0589 28.3824Z" fill="#181E21"/>
<path d="M25.3665 26.8043C25.885 26.8043 26.3053 26.384 26.3053 25.8655C26.3053 25.3471 25.885 24.9268 25.3665 24.9268C24.848 24.9268 24.4277 25.3471 24.4277 25.8655C24.4277 26.384 24.848 26.8043 25.3665 26.8043Z" fill="white"/>
<path d="M29.9982 39.8321V60C29.1275 60 28.265 59.9625 27.4119 59.8899C21.4459 59.3813 15.9779 57.1254 11.5225 53.6356V40.9711C11.5225 38.9555 13.1561 37.3207 15.1729 37.3207H27.4869C28.8732 37.3207 29.9982 38.4457 29.9982 39.8321Z" fill="#F6F1F1"/>
<path d="M15.8947 37.3207V52.6067H11.5225V40.9711C11.5225 38.9555 13.1561 37.3207 15.1729 37.3207H15.8947Z" fill="#DFEAEF"/>
<path d="M48.4738 42.7289V53.6379C44.0172 57.1254 38.5504 59.3801 32.5855 59.8899C31.7336 59.9625 30.8711 60 29.9992 60H29.998V39.6842C29.998 39.3497 30.2692 39.0786 30.6037 39.0786H44.8235C46.8395 39.0786 48.4738 40.7128 48.4738 42.7289Z" fill="#F6F1F1"/>
<path d="M29.9982 39.6352V60C23.0291 60 16.6143 57.6235 11.5225 53.6356V43.2856C11.5225 41.27 13.1561 39.6352 15.1729 39.6352H29.9982Z" fill="#66B49D"/>
<path d="M48.4738 43.2856V53.6379C43.3809 57.6235 36.9672 60 29.9992 60H29.998V39.6352H44.8235C46.8391 39.6352 48.4738 41.27 48.4738 43.2856Z" fill="#80E29D"/>
<path d="M32.5869 39.6352V59.8899C31.7349 59.9625 30.8724 60 30.0006 60H29.9994C29.1287 60 28.2662 59.9625 27.4131 59.8899V39.6352H32.5869Z" fill="#1E8470"/>
<path d="M27.4131 41.9547H32.5859V44.2742H27.4131V41.9547Z" fill="#ECC32E"/>
<path d="M44.2583 47.3015H36.4696C35.741 47.3015 35.1504 46.7108 35.1504 45.9823V43.9451C35.1504 43.2165 35.741 42.6259 36.4696 42.6259H44.2583C44.9869 42.6259 45.5775 43.2165 45.5775 43.9451V45.9823C45.5775 46.7108 44.9869 47.3015 44.2583 47.3015Z" fill="#ECC32E"/>
<path d="M36.6738 44.9637C36.6738 44.5139 37.0384 44.1494 37.4882 44.1494H43.2397C43.6895 44.1494 44.0541 44.5139 44.0541 44.9637C44.0541 45.4135 43.6895 45.778 43.2397 45.778H37.4882C37.0384 45.778 36.6738 45.4135 36.6738 44.9637Z" fill="#2F373B"/>
<path d="M27.4131 46.018H32.5859V48.3375H27.4131V46.018Z" fill="#ECC32E"/>
</g>
</svg>
