<svg width="26" height="28" viewBox="0 0 26 28" fill="none" xmlns="http://www.w3.org/2000/svg">
<path d="M13.0127 0.666748C16.2379 0.666748 18.8518 3.33341 18.8908 6.62675H19.1639C22.7533 6.62675 25.6663 9.62675 25.6663 13.3067V20.6667C25.6663 24.3467 22.7533 27.3334 19.1639 27.3334H6.8354C3.24608 27.3334 0.333008 24.3467 0.333008 20.6667V13.3067C0.333008 9.62675 3.24608 6.62675 6.8354 6.62675H7.1085C7.13451 5.02675 7.74574 3.53341 8.85115 2.41341C9.96956 1.28008 11.4001 0.706748 13.0127 0.666748ZM17.9415 8.21341C17.4083 8.21341 16.9661 8.66675 16.9661 9.21342V10.7601C16.9661 11.3067 17.4083 11.7601 17.9415 11.7601C18.4877 11.7601 18.9169 11.3067 18.9169 10.7601V9.21342C18.9169 8.66675 18.4877 8.21341 17.9415 8.21341ZM7.94081 8.21341C7.40761 8.21341 6.96545 8.66675 6.96545 9.21342V10.7601C6.96545 11.3067 7.40761 11.7601 7.94081 11.7601C8.48701 11.7601 8.91617 11.3067 8.91617 10.7601V9.21342C8.91617 8.66675 8.48701 8.21341 7.94081 8.21341ZM13.0127 2.66675C12.0113 2.66675 10.9709 3.08008 10.2166 3.84008C9.48838 4.58675 9.08523 5.57341 9.05922 6.62675H16.9401C16.9011 4.44008 15.1585 2.66675 13.0127 2.66675Z" fill="currentColor"/>
</svg>
