<svg width="16" height="16" viewBox="0 0 16 16" fill="none" xmlns="http://www.w3.org/2000/svg">
<path d="M7.99981 15.4998C3.85756 15.4998 0.5 12.1422 0.5 8C0.5 3.85775 3.85756 0.500183 7.99981 0.500183C12.1421 0.500183 15.4996 3.85775 15.4996 8C15.4996 12.1422 12.1421 15.4998 7.99981 15.4998ZM7.99981 14.0002C9.59116 14.0002 11.1173 13.368 12.2426 12.2428C13.3678 11.1175 14 9.59135 14 8C14 6.40865 13.3678 4.88248 12.2426 3.75722C11.1173 2.63197 9.59116 1.99981 7.99981 1.99981C6.40846 1.99981 4.88229 2.63197 3.75704 3.75722C2.63179 4.88248 1.99962 6.40865 1.99962 8C1.99962 9.59135 2.63179 11.1175 3.75704 12.2428C4.88229 13.368 6.40846 14.0002 7.99981 14.0002ZM7.25169 10.9998L4.06962 7.81775L5.1305 6.75743L7.25225 8.87918L11.4941 4.63625L12.5555 5.69656L7.25225 10.9998H7.25169Z" fill="#728EAE"/>
</svg>
