<svg width="14" height="12" viewBox="0 0 14 12" fill="none" xmlns="http://www.w3.org/2000/svg">
<path d="M12.2498 10.0832H13.4166V11.25H0.583008V10.0832H1.74982V1.33319C1.74982 1.17852 1.81126 1.03018 1.92063 0.920812C2.03 0.811443 2.17834 0.75 2.33301 0.75H8.16663C8.3213 0.75 8.46964 0.811443 8.57901 0.920812C8.68838 1.03018 8.74982 1.17852 8.74982 1.33319V10.0832H11.083V5.41681H9.91663V4.25H11.6666C11.8213 4.25 11.9696 4.31144 12.079 4.42081C12.1884 4.53018 12.2498 4.67852 12.2498 4.83319V10.0832ZM2.91663 1.91681V10.0832H7.58301V1.91681H2.91663ZM4.08301 5.41681H6.41663V6.58319H4.08301V5.41681ZM4.08301 3.08319H6.41663V4.25H4.08301V3.08319Z" fill="#44638C"/>
</svg>
