<svg width="28" height="28" viewBox="0 0 28 28" fill="none" xmlns="http://www.w3.org/2000/svg">
<path d="M13.9993 0.666748C21.3594 0.666748 27.3327 6.64008 27.3327 14.0001C27.3327 21.3734 21.3594 27.3334 13.9993 27.3334C6.62602 27.3334 0.666016 21.3734 0.666016 14.0001C0.666016 6.64008 6.62602 0.666748 13.9993 0.666748ZM19.1327 9.61341C19.2794 9.14675 18.8527 8.70675 18.386 8.85341L11.5593 10.9867C11.2793 11.0801 11.0527 11.2934 10.9727 11.5734L8.83935 18.4134C8.69268 18.8667 9.13268 19.3067 9.58602 19.1601L16.386 17.0267C16.666 16.9467 16.8927 16.7201 16.9727 16.4401L19.1327 9.61341Z" fill="currentColor" fill-opacity="0.4"/>
</svg>
