<svg width="12" height="12" viewBox="0 0 12 12" fill="none" xmlns="http://www.w3.org/2000/svg">
<path d="M11.2502 0.75C11.4049 0.75 11.5532 0.811443 11.6626 0.920812C11.7719 1.03018 11.8334 1.17852 11.8334 1.33319V4.54181C11.6419 4.54181 11.4523 4.57953 11.2753 4.65281C11.0984 4.72609 10.9377 4.8335 10.8023 4.96891C10.6669 5.10431 10.5595 5.26506 10.4862 5.44198C10.4129 5.61889 10.3752 5.80851 10.3752 6C10.3752 6.19149 10.4129 6.38111 10.4862 6.55802C10.5595 6.73494 10.6669 6.89569 10.8023 7.03109C10.9377 7.1665 11.0984 7.27391 11.2753 7.34719C11.4523 7.42047 11.6419 7.45819 11.8334 7.45819V10.6668C11.8334 10.8215 11.7719 10.9698 11.6626 11.0792C11.5532 11.1886 11.4049 11.25 11.2502 11.25H0.75018C0.595509 11.25 0.447173 11.1886 0.337804 11.0792C0.228435 10.9698 0.166992 10.8215 0.166992 10.6668V7.45819C0.553728 7.45819 0.924623 7.30456 1.19809 7.03109C1.47155 6.75763 1.62518 6.38674 1.62518 6C1.62518 5.61326 1.47155 5.24237 1.19809 4.96891C0.924623 4.69544 0.553728 4.54181 0.166992 4.54181V1.33319C0.166992 1.17852 0.228435 1.03018 0.337804 0.920812C0.447173 0.811443 0.595509 0.75 0.75018 0.75H11.2502ZM10.667 1.91681H1.33337V3.648L1.42437 3.69525C1.82007 3.91112 2.15352 4.22526 2.3926 4.60739C2.63167 4.98953 2.76832 5.42679 2.78937 5.87706L2.79199 6C2.79205 6.47153 2.66507 6.93436 2.42441 7.33984C2.18375 7.74533 1.8383 8.07849 1.42437 8.30431L1.33337 8.352V10.0832H10.667V8.35156L10.576 8.30475C10.1803 8.08888 9.84684 7.77474 9.60776 7.39261C9.36868 7.01047 9.23204 6.57321 9.21099 6.12294L9.20837 6C9.20813 5.52844 9.33502 5.06553 9.5757 4.66001C9.81638 4.25449 10.1619 3.92136 10.576 3.69569L10.667 3.64756V1.91681Z" fill="#44638C"/>
</svg>
