<svg width="12" height="13" viewBox="0 0 12 13" fill="none" xmlns="http://www.w3.org/2000/svg">
<path d="M2.5 4.66688V4.08325C2.5 3.15499 2.86875 2.26476 3.52513 1.60838C4.1815 0.952001 5.07174 0.583252 6 0.583252C6.92826 0.583252 7.8185 0.952001 8.47487 1.60838C9.13125 2.26476 9.5 3.15499 9.5 4.08325V4.66688H10.6668C10.8215 4.66688 10.9698 4.72832 11.0792 4.83769C11.1886 4.94706 11.25 5.09539 11.25 5.25006V12.2501C11.25 12.4047 11.1886 12.5531 11.0792 12.6624C10.9698 12.7718 10.8215 12.8333 10.6668 12.8333H1.33319C1.17852 12.8333 1.03018 12.7718 0.920812 12.6624C0.811443 12.5531 0.75 12.4047 0.75 12.2501V5.25006C0.75 5.09539 0.811443 4.94706 0.920812 4.83769C1.03018 4.72832 1.17852 4.66688 1.33319 4.66688H2.5ZM10.0832 5.83325H1.91681V11.6669H10.0832V5.83325ZM5.41681 9.17706C5.19432 9.04867 5.02042 8.85045 4.92208 8.61314C4.82374 8.37584 4.80646 8.11271 4.87291 7.86458C4.93937 7.61645 5.08585 7.39718 5.28964 7.24079C5.49343 7.0844 5.74312 6.99964 6 6.99964C6.25688 6.99964 6.50658 7.0844 6.71036 7.24079C6.91415 7.39718 7.06063 7.61645 7.12709 7.86458C7.19354 8.11271 7.17626 8.37584 7.07792 8.61314C6.97958 8.85045 6.80568 9.04867 6.58319 9.17706V10.5001H5.41681V9.17706ZM3.66681 4.66644H8.33319V4.08369C8.33319 3.46489 8.08737 2.87143 7.64981 2.43388C7.21226 1.99632 6.6188 1.7505 6 1.7505C5.3812 1.7505 4.78774 1.99632 4.35019 2.43388C3.91263 2.87143 3.66681 3.46489 3.66681 4.08369V4.66731V4.66644Z" fill="#44638C"/>
</svg>
