<svg width="12" height="12" viewBox="0 0 12 12" fill="none" xmlns="http://www.w3.org/2000/svg">
<path d="M0.75018 0.75H11.2502C11.4049 0.75 11.5532 0.811443 11.6626 0.920812C11.7719 1.03018 11.8334 1.17852 11.8334 1.33319V10.6668C11.8334 10.8215 11.7719 10.9698 11.6626 11.0792C11.5532 11.1886 11.4049 11.25 11.2502 11.25H0.75018C0.595509 11.25 0.447173 11.1886 0.337804 11.0792C0.228435 10.9698 0.166992 10.8215 0.166992 10.6668V1.33319C0.166992 1.17852 0.228435 1.03018 0.337804 0.920812C0.447173 0.811443 0.595509 0.75 0.75018 0.75ZM10.667 5.41681H1.33337V10.0832H10.667V5.41681ZM10.667 4.25V1.91681H1.33337V4.25H10.667ZM7.16699 7.75H9.50018V8.91681H7.16699V7.75Z" fill="#44638C"/>
</svg>
