<svg width="12" height="12" viewBox="0 0 12 12" fill="none" xmlns="http://www.w3.org/2000/svg">
<path d="M1.91681 8.33319V11.8332H0.75V0.75H6.22312C6.33134 0.750109 6.43739 0.780326 6.52942 0.83727C6.62144 0.894214 6.6958 0.97564 6.74419 1.07244L7.16681 1.91681H10.6668C10.8215 1.91681 10.9698 1.97826 11.0792 2.08762C11.1886 2.19699 11.25 2.34533 11.25 2.5V8.91681C11.25 9.07148 11.1886 9.21982 11.0792 9.32919C10.9698 9.43856 10.8215 9.5 10.6668 9.5H6.94369C6.8354 9.49997 6.72925 9.46979 6.63715 9.41284C6.54504 9.3559 6.47061 9.27443 6.42219 9.17756L6 8.33319H1.91681ZM1.91681 1.91681V7.16681H6.721L7.30419 8.33319H10.0832V3.08319H6.44625L5.86263 1.91681H1.91681Z" fill="#44638C"/>
</svg>
