<svg width="10" height="13" viewBox="0 0 10 13" fill="none" xmlns="http://www.w3.org/2000/svg">
<path d="M9.66663 12.8333H8.49982V11.6669C8.49982 11.2027 8.31545 10.7576 7.98726 10.4294C7.65907 10.1013 7.21395 9.91688 6.74982 9.91688H3.24982C2.78569 9.91688 2.34057 10.1013 2.01238 10.4294C1.68419 10.7576 1.49982 11.2027 1.49982 11.6669V12.8333H0.333008V11.6669C0.333008 10.8933 0.640314 10.1514 1.18732 9.60438C1.73433 9.05737 2.47623 8.75006 3.24982 8.75006H6.74982C7.52341 8.75006 8.26531 9.05737 8.81232 9.60438C9.35933 10.1514 9.66663 10.8933 9.66663 11.6669V12.8333ZM4.99982 7.58325C4.07156 7.58325 3.18132 7.2145 2.52495 6.55813C1.86857 5.90175 1.49982 5.01151 1.49982 4.08325C1.49982 3.15499 1.86857 2.26476 2.52495 1.60838C3.18132 0.952001 4.07156 0.583252 4.99982 0.583252C5.92808 0.583252 6.81832 0.952001 7.47469 1.60838C8.13107 2.26476 8.49982 3.15499 8.49982 4.08325C8.49982 5.01151 8.13107 5.90175 7.47469 6.55813C6.81832 7.2145 5.92808 7.58325 4.99982 7.58325ZM4.99982 6.41688C5.61868 6.41688 6.21219 6.17104 6.64979 5.73344C7.08739 5.29584 7.33323 4.70233 7.33323 4.08347C7.33323 3.46461 7.08739 2.8711 6.64979 2.4335C6.21219 1.9959 5.61868 1.75006 4.99982 1.75006C4.38096 1.75006 3.78745 1.9959 3.34985 2.4335C2.91225 2.8711 2.66641 3.46461 2.66641 4.08347C2.66641 4.70233 2.91225 5.29584 3.34985 5.73344C3.78745 6.17104 4.38096 6.41688 4.99982 6.41688Z" fill="#44638C"/>
</svg>
