<svg width="12" height="13" viewBox="0 0 12 13" fill="none" xmlns="http://www.w3.org/2000/svg">
<path d="M8.91699 1.75006H11.2502C11.4049 1.75006 11.5532 1.81151 11.6626 1.92088C11.7719 2.03025 11.8334 2.17858 11.8334 2.33325V11.6669C11.8334 11.8215 11.7719 11.9699 11.6626 12.0793C11.5532 12.1886 11.4049 12.2501 11.2502 12.2501H0.75018C0.595509 12.2501 0.447173 12.1886 0.337804 12.0793C0.228435 11.9699 0.166992 11.8215 0.166992 11.6669V2.33325C0.166992 2.17858 0.228435 2.03025 0.337804 1.92088C0.447173 1.81151 0.595509 1.75006 0.75018 1.75006H3.08337V0.583252H4.25018V1.75006H7.75018V0.583252H8.91699V1.75006ZM7.75018 2.91688H4.25018V4.08325H3.08337V2.91688H1.33337V5.25006H10.667V2.91688H8.91699V4.08325H7.75018V2.91688ZM10.667 6.41688H1.33337V11.0833H10.667V6.41688Z" fill="#44638C"/>
</svg>
