<svg width="18" height="17" viewBox="0 0 18 17" fill="none" xmlns="http://www.w3.org/2000/svg">
<path d="M9.00033 0.666687C4.39616 0.666687 0.666993 4.39585 0.666993 9.00002C0.666048 10.7494 1.216 12.4547 2.23884 13.8739C3.26167 15.2931 4.70545 16.3542 6.36533 16.9067C6.78199 16.9792 6.93783 16.7292 6.93783 16.51C6.93783 16.3125 6.92699 15.6567 6.92699 14.9584C4.83366 15.3442 4.29199 14.4484 4.12533 13.9792C4.03116 13.7392 3.62533 13 3.27116 12.8017C2.97949 12.6459 2.56283 12.26 3.26033 12.25C3.91699 12.2392 4.38533 12.8542 4.54199 13.1042C5.29199 14.3642 6.49033 14.01 6.96866 13.7917C7.04199 13.25 7.26033 12.8859 7.50033 12.6775C5.64616 12.4692 3.70866 11.75 3.70866 8.56252C3.70866 7.65585 4.03116 6.90669 4.56283 6.32252C4.47949 6.11419 4.18783 5.26002 4.64616 4.11419C4.64616 4.11419 5.34366 3.89585 6.93783 4.96919C7.61621 4.7809 8.31713 4.68614 9.02116 4.68752C9.72949 4.68752 10.4378 4.78085 11.1045 4.96835C12.6978 3.88502 13.3962 4.11502 13.3962 4.11502C13.8545 5.26085 13.5628 6.11502 13.4795 6.32335C14.0103 6.90669 14.3337 7.64585 14.3337 8.56252C14.3337 11.7609 12.3862 12.4692 10.532 12.6775C10.8337 12.9375 11.0945 13.4375 11.0945 14.2192C11.0945 15.3334 11.0837 16.2292 11.0837 16.5109C11.0837 16.7292 11.2403 16.9892 11.657 16.9059C13.3112 16.3474 14.7486 15.2842 15.7669 13.866C16.7852 12.4478 17.3332 10.746 17.3337 9.00002C17.3337 4.39585 13.6045 0.666687 9.00033 0.666687Z" fill="#44638C"/>
</svg>
