<svg width="17" height="18" viewBox="0 0 17 18" fill="none" xmlns="http://www.w3.org/2000/svg">
<path d="M1.55324 5.25812C2.24666 3.87754 3.31035 2.71699 4.62544 1.9062C5.94052 1.0954 7.45518 0.666307 9.00012 0.666871C11.2457 0.666871 13.1326 1.49187 14.5751 2.8375L12.1857 5.2275C11.322 4.40187 10.2232 3.98062 9.00012 3.98062C6.82949 3.98062 4.99199 5.4475 4.33762 7.41687C4.16577 7.92707 4.07734 8.46164 4.07574 9C4.07574 9.55 4.17074 10.0831 4.33762 10.5831C4.99262 12.5531 6.82949 14.0194 9.00012 14.0194C10.1207 14.0194 11.0751 13.7231 11.822 13.2231C12.2548 12.9381 12.6254 12.5683 12.9112 12.136C13.1971 11.7037 13.3923 11.218 13.4851 10.7081H9.00012V7.485H16.8482C16.947 8.03 17.0001 8.59812 17.0001 9.18937C17.0001 11.7275 16.092 13.8644 14.5151 15.3144C13.137 16.5875 11.2501 17.3331 9.00012 17.3331C7.90568 17.3335 6.82189 17.1183 5.81068 16.6996C4.79948 16.281 3.88068 15.6672 3.10679 14.8933C2.33291 14.1194 1.71911 13.2006 1.30048 12.1894C0.881845 11.1782 0.666582 10.0944 0.666993 9C0.666993 7.655 0.988243 6.38312 1.55324 5.25812Z" fill="#44638C"/>
</svg>
