<svg width="26" height="28" viewBox="0 0 26 28" fill="none" xmlns="http://www.w3.org/2000/svg">
<path fill="currentColor" d="M9.17938 25.6979V21.6209C9.17938 20.5802 10.0292 19.7365 11.0776 19.7365H14.9098C15.4133 19.7365 15.8961 19.935 16.2521 20.2884C16.608 20.6418 16.808 21.1211 16.808 21.6209V25.6979C16.8048 26.1305 16.9758 26.5466 17.2828 26.8537C17.5899 27.1607 18.0077 27.3334 18.4436 27.3334H21.0581C22.2792 27.3365 23.4513 26.8572 24.3159 26.0012C25.1805 25.1451 25.6663 23.9827 25.6663 22.7705V11.1559C25.6663 10.1767 25.2291 9.24787 24.4725 8.61964L15.5784 1.56791C14.0312 0.331497 11.8145 0.371418 10.3135 1.66272L1.62236 8.61964C0.829995 9.22935 0.356411 10.1609 0.333008 11.1559V22.7587C0.333008 25.2852 2.39618 27.3334 4.94124 27.3334H7.49606C8.40131 27.3334 9.137 26.6084 9.14356 25.7097L9.17938 25.6979Z"  />
</svg>
