<svg width="80" height="80" viewBox="0 0 80 80" fill="none" xmlns="http://www.w3.org/2000/svg">
<rect width="80" height="80" rx="40" fill="#466DE8"/>
<g style="mix-blend-mode:luminosity" clip-path="url(#clip0)">
<path d="M49.5193 58.7271H24.7559V24.8215C24.7559 22.8922 26.3199 21.3281 28.2492 21.3281H56.5063C54.5767 21.3281 53.0127 22.8922 53.0127 24.8215V55.2338C53.0127 57.1631 51.4487 58.7271 49.5193 58.7271Z" fill="url(#paint0_linear)"/>
<path d="M53.013 36.2395L42.7249 25.9514C41.8253 24.9422 40.4398 24.2949 38.8846 24.2949C36.1728 24.2949 33.9746 26.2606 33.9746 28.6858V29.7237C33.9746 30.9426 34.53 32.0449 35.4266 32.8405L53.013 50.4268V36.2395Z" fill="url(#paint1_linear)"/>
<path d="M53.0127 29.3866H59.2572C59.6674 29.3866 59.9997 29.054 59.9997 28.6441V24.8215C59.9997 22.8922 58.4357 21.3281 56.5063 21.3281C54.5767 21.3281 53.013 22.8922 53.013 24.8215V29.3866H53.0127Z" fill="url(#paint2_linear)"/>
<path d="M52.2983 57.3499L45.946 50.9973C45.8127 50.7993 45.5862 50.6689 45.3296 50.6689H24.7559V58.7271H49.5193C50.6531 58.7271 51.6602 58.1866 52.2983 57.3499Z" fill="url(#paint3_linear)"/>
<path d="M49.5651 58.7271H23.494C21.5637 58.7271 20 57.1625 20 55.2332V51.4114C20 51.0013 20.3323 50.6689 20.7425 50.6689H45.3299C45.7401 50.6689 46.0724 51.0013 46.0724 51.4114V55.2332C46.0724 57.1625 47.6361 58.7271 49.5651 58.7271Z" fill="url(#paint4_linear)"/>
<path d="M49.8907 58.7124V58.7271H49.5654C49.675 58.7271 49.7833 58.7219 49.8907 58.7124Z" fill="url(#paint5_linear)"/>
<path d="M37.0574 37.1913H27.3174C27.1966 37.1913 27.0986 37.0937 27.0986 36.9728V36.3884C27.0986 36.2679 27.1966 36.1699 27.3174 36.1699H37.0574C37.178 36.1699 37.2759 36.2679 37.2759 36.3884V36.9728C37.2759 37.0937 37.178 37.1913 37.0574 37.1913Z" fill="url(#paint6_linear)"/>
<path d="M42.0372 37.1913H38.3259C38.2054 37.1913 38.1074 37.0937 38.1074 36.9728V36.3884C38.1074 36.2679 38.2054 36.1699 38.3259 36.1699H42.0372C42.158 36.1699 42.256 36.2679 42.256 36.3884V36.9728C42.2557 37.0937 42.158 37.1913 42.0372 37.1913Z" fill="url(#paint7_linear)"/>
<path d="M50.4517 37.1913H43.4034C43.2825 37.1913 43.1846 37.0937 43.1846 36.9728V36.3884C43.1846 36.2679 43.2825 36.1699 43.4034 36.1699H50.4517C50.5726 36.1699 50.6705 36.2679 50.6705 36.3884V36.9728C50.6705 37.0937 50.5726 37.1913 50.4517 37.1913Z" fill="url(#paint8_linear)"/>
<path d="M40.7117 39.1372H50.4517C50.5725 39.1372 50.6705 39.2352 50.6705 39.356V39.9404C50.6705 40.061 50.5725 40.1589 50.4517 40.1589H40.7117C40.5911 40.1589 40.4932 40.061 40.4932 39.9404V39.356C40.4932 39.2352 40.5911 39.1372 40.7117 39.1372Z" fill="url(#paint9_linear)"/>
<path d="M35.7325 39.1372H39.4437C39.5643 39.1372 39.6622 39.2352 39.6622 39.356V39.9404C39.6622 40.061 39.5643 40.1589 39.4437 40.1589H35.7325C35.6116 40.1589 35.5137 40.061 35.5137 39.9404V39.356C35.514 39.2352 35.6116 39.1372 35.7325 39.1372Z" fill="url(#paint10_linear)"/>
<path d="M27.3174 39.1372H34.3658C34.4866 39.1372 34.5846 39.2352 34.5846 39.356V39.9404C34.5846 40.061 34.4866 40.1589 34.3658 40.1589H27.3174C27.1966 40.1589 27.0986 40.061 27.0986 39.9404V39.356C27.0986 39.2352 27.1966 39.1372 27.3174 39.1372Z" fill="url(#paint11_linear)"/>
<path d="M37.0574 43.1262H27.3174C27.1966 43.1262 27.0986 43.0283 27.0986 42.9077V42.3233C27.0986 42.2025 27.1966 42.1045 27.3174 42.1045H37.0574C37.178 42.1045 37.2759 42.2025 37.2759 42.3233V42.9077C37.2759 43.0283 37.178 43.1262 37.0574 43.1262Z" fill="url(#paint12_linear)"/>
<path d="M42.0372 43.1262H38.3259C38.2054 43.1262 38.1074 43.0283 38.1074 42.9077V42.3233C38.1074 42.2025 38.2054 42.1045 38.3259 42.1045H42.0372C42.158 42.1045 42.256 42.2025 42.256 42.3233V42.9077C42.2557 43.0283 42.158 43.1262 42.0372 43.1262Z" fill="url(#paint13_linear)"/>
<path d="M37.0574 46.0935H27.3174C27.1966 46.0935 27.0986 45.9955 27.0986 45.875V45.2906C27.0986 45.1697 27.1966 45.0718 27.3174 45.0718H37.0574C37.178 45.0718 37.2759 45.1697 37.2759 45.2906V45.875C37.2759 45.9955 37.178 46.0935 37.0574 46.0935Z" fill="url(#paint14_linear)"/>
<path d="M42.5503 49.0607H27.3174C27.1966 49.0607 27.0986 48.9628 27.0986 48.8422V48.2578C27.0986 48.137 27.1966 48.0393 27.3174 48.0393H42.5503C42.6708 48.0393 42.7688 48.137 42.7688 48.2578V48.8422C42.7688 48.9631 42.6708 49.0607 42.5503 49.0607Z" fill="url(#paint15_linear)"/>
<path d="M50.4517 49.0607H44.2673C44.1468 49.0607 44.0488 48.9628 44.0488 48.8422V48.2578C44.0488 48.137 44.1468 48.0393 44.2673 48.0393H50.4517C50.5726 48.0393 50.6705 48.137 50.6705 48.2578V48.8422C50.6705 48.9631 50.5726 49.0607 50.4517 49.0607Z" fill="url(#paint16_linear)"/>
<path d="M43.7946 28.6858C43.7946 26.2606 41.5964 24.2949 38.8846 24.2949C36.1728 24.2949 33.9746 26.2606 33.9746 28.6858V29.7237C33.9746 32.1489 36.1728 34.1146 38.8846 34.1146C41.5964 34.1146 43.7946 32.1489 43.7946 29.7237C43.7946 29.7203 43.7946 28.6891 43.7946 28.6858Z" fill="url(#paint17_linear)"/>
<path d="M42.9283 26.195C42.0427 25.0472 40.562 24.2947 38.8844 24.2947C37.2072 24.2947 35.7264 25.0472 34.8408 26.195V32.2143C35.7264 33.3624 37.2072 34.1146 38.8844 34.1146C40.562 34.1146 42.0427 33.3624 42.9283 32.2143V26.195Z" fill="url(#paint18_linear)"/>
<path d="M36.0049 33.2802C36.8139 33.8048 37.8088 34.1146 38.8848 34.1146C39.9606 34.1146 40.9558 33.8048 41.7648 33.2802V25.1293C40.9558 24.6047 39.9606 24.2949 38.8848 24.2949C37.8088 24.2949 36.8139 24.6047 36.0049 25.1293V33.2802Z" fill="url(#paint19_linear)"/>
<path d="M37.7695 34.0007C38.1278 34.0752 38.5013 34.1146 38.8849 34.1146C39.2686 34.1146 39.6421 34.0752 40.0007 34.0007V24.4088C39.6421 24.3343 39.2689 24.2949 38.8849 24.2949C38.5013 24.2949 38.1278 24.3343 37.7695 24.4088V34.0007Z" fill="url(#paint20_linear)"/>
<path d="M43.7946 28.6858C43.7946 26.2606 41.5964 24.2949 38.8846 24.2949C36.1728 24.2949 33.9746 26.2606 33.9746 28.6858C33.9746 31.1107 36.1728 33.0767 38.8846 33.0767C41.5964 33.0767 43.7946 31.1107 43.7946 28.6858Z" fill="url(#paint21_radial)"/>
<path d="M43.2471 28.686C43.2471 26.5315 41.2943 24.7847 38.8849 24.7847C36.4756 24.7847 34.5225 26.5315 34.5225 28.686C34.5225 30.8406 36.4756 32.5871 38.8849 32.5871C41.2943 32.5871 43.2471 30.8406 43.2471 28.686Z" fill="url(#paint22_radial)"/>
<path d="M42.8341 28.6859C42.8341 26.7352 41.0659 25.1541 38.8848 25.1541C36.7037 25.1541 34.9355 26.7352 34.9355 28.6859C34.9355 30.6362 36.7037 32.2177 38.8848 32.2177C41.0659 32.2177 42.8341 30.6362 42.8341 28.6859Z" fill="url(#paint23_radial)"/>
<path d="M43.5533 30.0477L40.1365 26.6309C40.088 26.5549 39.994 26.4918 39.8546 26.4417C39.7038 26.3877 39.5433 26.3508 39.3733 26.3306C39.3641 26.3248 39.3547 26.3196 39.3452 26.3154L39.0934 26.0456C39.0538 26.0166 39.011 26.002 38.9656 26.002C38.9155 26.002 38.8728 26.0163 38.8377 26.0456C38.8023 26.0746 38.7846 26.1078 38.7846 26.1454V26.3264C38.4477 26.3636 38.166 26.4759 37.9393 26.663C37.7125 26.8503 37.5993 27.1244 37.5993 27.4857C37.5993 27.6142 37.614 27.7317 37.6432 27.8376C37.6722 27.9432 37.7202 28.0356 37.7867 28.1144C37.8529 28.1934 37.9164 28.2609 37.9768 28.3167C37.9771 28.3173 37.9777 28.3176 37.978 28.3179C37.978 28.3179 38.7626 29.1022 38.7629 29.1028C38.7703 29.1105 38.7773 29.1178 38.7846 29.1254V30.1688C38.6003 30.1563 38.4379 30.1087 38.2979 30.0254C38.1575 29.9427 38.047 29.8649 37.9667 29.7922C37.8865 29.7196 37.8218 29.6833 37.7723 29.6833C37.6979 29.6833 37.632 29.7227 37.574 29.8014C37.516 29.8804 37.4873 29.9592 37.4873 30.0382C37.4873 30.1642 37.5581 30.2885 37.7003 30.4108L40.2055 32.916C41.7872 32.5217 43.047 31.4368 43.5533 30.0477Z" fill="url(#paint24_linear)"/>
<path d="M37.4873 30.0377C37.4873 29.959 37.5163 29.8799 37.5743 29.8012C37.632 29.7225 37.6982 29.6828 37.7726 29.6828C37.8218 29.6828 37.8868 29.7194 37.967 29.7917C38.0473 29.8647 38.1575 29.9425 38.2979 30.0252C38.4382 30.1082 38.6006 30.1561 38.7849 30.1683V28.7056C38.6601 28.6599 38.5643 28.6235 38.498 28.5967C38.4312 28.5698 38.343 28.5302 38.2328 28.4786C38.1227 28.4267 38.0372 28.3727 37.9771 28.3165C37.9167 28.2607 37.8532 28.1932 37.7867 28.1142C37.7202 28.0355 37.6722 27.943 37.6432 27.8371C37.6143 27.7312 37.5996 27.614 37.5996 27.4855C37.5996 27.1242 37.7128 26.8499 37.9396 26.6628C38.166 26.4757 38.448 26.3634 38.7849 26.3259V26.1452C38.7849 26.1077 38.8026 26.0744 38.8377 26.0454C38.8731 26.0161 38.9158 26.0015 38.9659 26.0015C39.0114 26.0015 39.0541 26.0161 39.0937 26.0454C39.1331 26.0744 39.153 26.1077 39.153 26.1452V26.3134C39.4066 26.3219 39.6403 26.3646 39.8546 26.4412C40.0688 26.5184 40.1759 26.6252 40.1759 26.7626C40.1759 26.8373 40.1506 26.9155 40.1002 26.9966C40.0502 27.0775 39.983 27.1181 39.8991 27.1181C39.8661 27.1181 39.7749 27.083 39.626 27.0122C39.477 26.9414 39.3193 26.8999 39.153 26.8874V28.1514C39.3184 28.2137 39.4557 28.2729 39.5652 28.329C39.6748 28.3852 39.7908 28.4627 39.9128 28.5625C40.0349 28.662 40.1268 28.7877 40.1887 28.9391C40.2507 29.0905 40.2818 29.2681 40.2818 29.4713C40.2818 29.8427 40.1805 30.1381 39.9778 30.3572C39.7752 30.5764 39.5002 30.7109 39.153 30.761V30.9694C39.153 31.0063 39.1331 31.0387 39.0937 31.0674C39.0541 31.0961 39.0114 31.1104 38.9659 31.1104C38.9158 31.1104 38.8731 31.0961 38.8377 31.0674C38.8026 31.039 38.7849 31.0063 38.7849 30.9694V30.7796C38.423 30.7756 38.1163 30.6929 37.8648 30.5315C37.613 30.3701 37.4873 30.2056 37.4873 30.0377ZM38.2173 27.4233C38.2173 27.5853 38.2676 27.7086 38.3687 27.7938C38.4694 27.8786 38.6207 27.9586 38.8224 28.0333V26.8993C38.419 26.949 38.2173 27.1239 38.2173 27.4233ZM39.1154 30.1561C39.4813 30.0896 39.6644 29.8842 39.6644 29.5397C39.6644 29.3572 39.6165 29.2141 39.521 29.1103C39.4252 29.0065 39.2903 28.9174 39.1154 28.8427V30.1561Z" fill="url(#paint25_linear)"/>
</g>
<defs>
<linearGradient id="paint0_linear" x1="28.6529" y1="28.0495" x2="61.9723" y2="61.3689" gradientUnits="userSpaceOnUse">
<stop stop-color="#F9F7FC"/>
<stop offset="1" stop-color="#F0DDFC"/>
</linearGradient>
<linearGradient id="paint1_linear" x1="51.829" y1="42.1497" x2="31.0163" y2="21.337" gradientUnits="userSpaceOnUse">
<stop stop-color="#F0DDFC" stop-opacity="0"/>
<stop offset="0.2889" stop-color="#C8B7E0" stop-opacity="0.290196"/>
<stop offset="0.5915" stop-color="#A595C8" stop-opacity="0.592157"/>
<stop offset="0.8395" stop-color="#8F81B8" stop-opacity="0.839216"/>
<stop offset="1" stop-color="#8779B3"/>
</linearGradient>
<linearGradient id="paint2_linear" x1="57.2198" y1="32.6298" x2="55.9464" y2="22.5694" gradientUnits="userSpaceOnUse">
<stop stop-color="#F9F7FC"/>
<stop offset="1" stop-color="#F0DDFC"/>
</linearGradient>
<linearGradient id="paint3_linear" x1="47.2617" y1="66.7633" x2="35.8026" y2="55.3042" gradientUnits="userSpaceOnUse">
<stop stop-color="#F0DDFC" stop-opacity="0"/>
<stop offset="0.2889" stop-color="#C8B7E0" stop-opacity="0.290196"/>
<stop offset="0.5915" stop-color="#A595C8" stop-opacity="0.592157"/>
<stop offset="0.8395" stop-color="#8F81B8" stop-opacity="0.839216"/>
<stop offset="1" stop-color="#8779B3"/>
</linearGradient>
<linearGradient id="paint4_linear" x1="34.7826" y1="53.3515" x2="34.7826" y2="57.1812" gradientUnits="userSpaceOnUse">
<stop stop-color="#F9F7FC"/>
<stop offset="1" stop-color="#F0DDFC"/>
</linearGradient>
<linearGradient id="paint5_linear" x1="49.6732" y1="58.6648" x2="49.8493" y2="58.8408" gradientUnits="userSpaceOnUse">
<stop stop-color="#F9F7FC"/>
<stop offset="1" stop-color="#F0DDFC"/>
</linearGradient>
<linearGradient id="paint6_linear" x1="32.1874" y1="32.7702" x2="32.1874" y2="48.7494" gradientUnits="userSpaceOnUse">
<stop stop-color="#4F4A72"/>
<stop offset="1" stop-color="#3B395F"/>
</linearGradient>
<linearGradient id="paint7_linear" x1="40.1816" y1="32.7702" x2="40.1816" y2="48.7494" gradientUnits="userSpaceOnUse">
<stop stop-color="#4F4A72"/>
<stop offset="1" stop-color="#3B395F"/>
</linearGradient>
<linearGradient id="paint8_linear" x1="46.9276" y1="32.7702" x2="46.9276" y2="48.7494" gradientUnits="userSpaceOnUse">
<stop stop-color="#4F4A72"/>
<stop offset="1" stop-color="#3B395F"/>
</linearGradient>
<linearGradient id="paint9_linear" x1="45.5817" y1="43.5586" x2="45.5817" y2="27.5794" gradientUnits="userSpaceOnUse">
<stop stop-color="#4F4A72"/>
<stop offset="1" stop-color="#3B395F"/>
</linearGradient>
<linearGradient id="paint10_linear" x1="37.588" y1="43.5586" x2="37.588" y2="27.5794" gradientUnits="userSpaceOnUse">
<stop stop-color="#4F4A72"/>
<stop offset="1" stop-color="#3B395F"/>
</linearGradient>
<linearGradient id="paint11_linear" x1="30.8416" y1="43.5586" x2="30.8416" y2="27.5794" gradientUnits="userSpaceOnUse">
<stop stop-color="#4F4A72"/>
<stop offset="1" stop-color="#3B395F"/>
</linearGradient>
<linearGradient id="paint12_linear" x1="32.1874" y1="38.7048" x2="32.1874" y2="54.6841" gradientUnits="userSpaceOnUse">
<stop stop-color="#4F4A72"/>
<stop offset="1" stop-color="#3B395F"/>
</linearGradient>
<linearGradient id="paint13_linear" x1="40.1816" y1="38.7048" x2="40.1816" y2="54.6841" gradientUnits="userSpaceOnUse">
<stop stop-color="#4F4A72"/>
<stop offset="1" stop-color="#3B395F"/>
</linearGradient>
<linearGradient id="paint14_linear" x1="32.1874" y1="41.6722" x2="32.1874" y2="57.6514" gradientUnits="userSpaceOnUse">
<stop stop-color="#4F4A72"/>
<stop offset="1" stop-color="#3B395F"/>
</linearGradient>
<linearGradient id="paint15_linear" x1="34.9338" y1="44.6395" x2="34.9338" y2="60.6187" gradientUnits="userSpaceOnUse">
<stop stop-color="#4F4A72"/>
<stop offset="1" stop-color="#3B395F"/>
</linearGradient>
<linearGradient id="paint16_linear" x1="47.3596" y1="44.6395" x2="47.3596" y2="60.6187" gradientUnits="userSpaceOnUse">
<stop stop-color="#4F4A72"/>
<stop offset="1" stop-color="#3B395F"/>
</linearGradient>
<linearGradient id="paint17_linear" x1="33.9746" y1="29.2047" x2="43.7945" y2="29.2047" gradientUnits="userSpaceOnUse">
<stop stop-color="#FFC738"/>
<stop offset="0.2344" stop-color="#FEC33A"/>
<stop offset="0.4454" stop-color="#FBB840"/>
<stop offset="0.6474" stop-color="#F6A649"/>
<stop offset="0.8426" stop-color="#F08D56"/>
<stop offset="1" stop-color="#E97264"/>
</linearGradient>
<linearGradient id="paint18_linear" x1="38.417" y1="28.306" x2="42.4527" y2="36.0669" gradientUnits="userSpaceOnUse">
<stop stop-color="#FCA17A" stop-opacity="0"/>
<stop offset="0.152" stop-color="#F69373" stop-opacity="0.152941"/>
<stop offset="0.416" stop-color="#EF816B" stop-opacity="0.415686"/>
<stop offset="0.6926" stop-color="#EA7666" stop-opacity="0.694118"/>
<stop offset="1" stop-color="#E97264"/>
</linearGradient>
<linearGradient id="paint19_linear" x1="38.7338" y1="30.737" x2="38.2571" y2="35.5717" gradientUnits="userSpaceOnUse">
<stop stop-color="#E97264" stop-opacity="0"/>
<stop offset="1" stop-color="#B53759"/>
</linearGradient>
<linearGradient id="paint20_linear" x1="37.9125" y1="30.9834" x2="36.439" y2="33.6783" gradientUnits="userSpaceOnUse">
<stop stop-color="#E97264" stop-opacity="0"/>
<stop offset="1" stop-color="#B53759"/>
</linearGradient>
<radialGradient id="paint21_radial" cx="0" cy="0" r="1" gradientUnits="userSpaceOnUse" gradientTransform="translate(37.5137 25.5072) scale(9.25745 8.27893)">
<stop stop-color="#FFC738"/>
<stop offset="0.2344" stop-color="#FEC33A"/>
<stop offset="0.4454" stop-color="#FBB840"/>
<stop offset="0.6474" stop-color="#F6A649"/>
<stop offset="0.8426" stop-color="#F08D56"/>
<stop offset="1" stop-color="#E97264"/>
</radialGradient>
<radialGradient id="paint22_radial" cx="0" cy="0" r="1" gradientUnits="userSpaceOnUse" gradientTransform="translate(39.2229 29.8019) rotate(180) scale(6.82751 6.10584)">
<stop stop-color="#FFC738"/>
<stop offset="0.2344" stop-color="#FEC33A"/>
<stop offset="0.4454" stop-color="#FBB840"/>
<stop offset="0.6474" stop-color="#F6A649"/>
<stop offset="0.8426" stop-color="#F08D56"/>
<stop offset="1" stop-color="#E97264"/>
</radialGradient>
<radialGradient id="paint23_radial" cx="0" cy="0" r="1" gradientUnits="userSpaceOnUse" gradientTransform="translate(38.213 26.5246) scale(7.68654 6.87407)">
<stop stop-color="#FFC738"/>
<stop offset="0.2344" stop-color="#FEC33A"/>
<stop offset="0.4454" stop-color="#FBB840"/>
<stop offset="0.6474" stop-color="#F6A649"/>
<stop offset="0.8426" stop-color="#F08D56"/>
<stop offset="1" stop-color="#E97264"/>
</radialGradient>
<linearGradient id="paint24_linear" x1="41.6186" y1="30.7066" x2="35.8468" y2="26.9176" gradientUnits="userSpaceOnUse">
<stop stop-color="#E97264" stop-opacity="0"/>
<stop offset="1" stop-color="#B53759"/>
</linearGradient>
<linearGradient id="paint25_linear" x1="40.0053" y1="28.5561" x2="35.6054" y2="28.5561" gradientUnits="userSpaceOnUse">
<stop stop-color="#FFC738"/>
<stop offset="1" stop-color="#E97264"/>
</linearGradient>
<clipPath id="clip0">
<rect width="40" height="40" fill="white" transform="translate(20 20)"/>
</clipPath>
</defs>
</svg>
