<svg width="12" height="12" viewBox="0 0 12 12" fill="none" xmlns="http://www.w3.org/2000/svg">
<path d="M1.33337 8.91681V11.8332H0.166992V0.75H11.3307C11.3818 0.749973 11.432 0.763358 11.4763 0.788817C11.5205 0.814276 11.5574 0.850917 11.5831 0.895076C11.6088 0.939234 11.6224 0.989363 11.6226 1.04045C11.6229 1.09154 11.6097 1.14179 11.5844 1.18619L9.50018 4.83319L11.5844 8.48019C11.6098 8.5246 11.6231 8.5749 11.6229 8.62605C11.6227 8.6772 11.6091 8.7274 11.5834 8.77163C11.5577 8.81585 11.5208 8.85254 11.4765 8.87803C11.4321 8.90351 11.3818 8.91688 11.3307 8.91681H1.3338H1.33337ZM1.33337 1.91681V7.75H9.82393L8.15662 4.83319L9.82349 1.91681H1.3338H1.33337Z" fill="#44638C"/>
</svg>
