<svg width="11" height="14" viewBox="0 0 11 14" fill="none" xmlns="http://www.w3.org/2000/svg">
<path d="M4.99982 8.16688V9.33325C4.07156 9.33325 3.18132 9.702 2.52495 10.3584C1.86857 11.0148 1.49982 11.905 1.49982 12.8333H0.333008C0.333124 11.5956 0.824856 10.4087 1.70004 9.5336C2.57522 8.6585 3.76218 8.16688 4.99982 8.16688ZM4.99982 7.58325C3.06607 7.58325 1.49982 6.017 1.49982 4.08325C1.49982 2.1495 3.06607 0.583252 4.99982 0.583252C6.93357 0.583252 8.49982 2.1495 8.49982 4.08325C8.49982 6.017 6.93357 7.58325 4.99982 7.58325ZM4.99982 6.41688C6.28913 6.41688 7.33301 5.37256 7.33301 4.08325C7.33301 2.79394 6.28913 1.75006 4.99982 1.75006C3.71051 1.75006 2.66663 2.79438 2.66663 4.08325C2.66663 5.37213 3.71051 6.41688 4.99982 6.41688ZM10.1492 12.2916L8.49982 14.0001L6.85044 12.2916C5.93826 11.3475 5.93826 9.818 6.85044 8.87432C7.06314 8.65088 7.31901 8.47299 7.60254 8.35144C7.88607 8.22988 8.19134 8.16721 8.49982 8.16721C8.8083 8.16721 9.11357 8.22988 9.3971 8.35144C9.68063 8.47299 9.9365 8.65088 10.1492 8.87432C11.0614 9.818 11.0614 11.3475 10.1492 12.2912V12.2916ZM9.31051 11.4805C9.78476 10.9896 9.78476 10.1763 9.31051 9.685C9.20661 9.57408 9.08105 9.48567 8.94161 9.42522C8.80216 9.36478 8.6518 9.33359 8.49982 9.33359C8.34784 9.33359 8.19748 9.36478 8.05803 9.42522C7.91859 9.48567 7.79303 9.57408 7.68913 9.685C7.21488 10.1763 7.21488 10.9896 7.68913 11.4814L8.49982 12.3201L9.31051 11.4801V11.4805Z" fill="#44638C"/>
</svg>
