<svg width="30" height="22" viewBox="0 0 30 22" fill="none" xmlns="http://www.w3.org/2000/svg">
<path d="M14.9317 14.3861C19.5066 14.3861 23.413 15.1114 23.413 18.0137C23.413 20.9149 19.5317 21.6666 14.9317 21.6666C10.3568 21.6666 6.45046 20.9413 6.45046 18.0401C6.45046 15.1378 10.3317 14.3861 14.9317 14.3861ZM22.2464 12.6384C23.9955 12.606 25.8758 12.8462 26.5706 13.0167C28.0427 13.3061 29.0109 13.8969 29.412 14.7554C29.7511 15.4603 29.7511 16.2781 29.412 16.9817C28.7984 18.3134 26.8202 18.7409 26.0513 18.8514C25.8925 18.8754 25.7648 18.7373 25.7815 18.5776C26.1743 14.8875 23.0499 13.138 22.2417 12.7357C22.207 12.7177 22.1999 12.6901 22.2035 12.6732C22.2058 12.6612 22.2202 12.642 22.2464 12.6384ZM7.42445 12.6359L7.75381 12.6389C7.78007 12.6425 7.7932 12.6617 7.79559 12.6725C7.79917 12.6905 7.79201 12.717 7.75858 12.7362C6.94914 13.1384 3.82478 14.888 4.21756 18.5769C4.23428 18.7378 4.10773 18.8747 3.94894 18.8519C3.18009 18.7414 1.20185 18.3139 0.588198 16.9822C0.247945 16.2774 0.247945 15.4608 0.588198 14.7559C0.989338 13.8974 1.95637 13.3066 3.42841 13.016C4.12444 12.8466 6.00359 12.6065 7.75381 12.6389L7.42445 12.6359ZM14.9317 0.333252C18.0465 0.333252 20.5441 2.84294 20.5441 5.97705C20.5441 9.10996 18.0465 11.6221 14.9317 11.6221C11.8169 11.6221 9.31933 9.10996 9.31933 5.97705C9.31933 2.84294 11.8169 0.333252 14.9317 0.333252ZM22.5509 1.27445C25.5594 1.27445 27.9221 4.12156 27.1174 7.2929C26.5742 9.42794 24.6079 10.8461 22.4172 10.7885C22.1975 10.7825 21.9814 10.762 21.7725 10.726C21.6208 10.6996 21.5444 10.5279 21.6304 10.4006C22.4661 9.16376 22.9425 7.67596 22.9425 6.07888C22.9425 4.41216 22.4219 2.85831 21.5182 1.58425C21.4895 1.54463 21.468 1.48339 21.4967 1.43776C21.5206 1.40053 21.5647 1.38132 21.6065 1.37171C21.911 1.30927 22.2238 1.27445 22.5509 1.27445ZM7.44758 1.27433C7.7747 1.27433 8.08749 1.30915 8.39312 1.37159C8.43372 1.3812 8.47908 1.40161 8.50296 1.43764C8.53042 1.48327 8.51012 1.54451 8.48147 1.58413C7.57771 2.85819 7.05718 4.41204 7.05718 6.07876C7.05718 7.67584 7.53354 9.16364 8.36925 10.4005C8.45521 10.5278 8.3788 10.6995 8.22718 10.7259C8.01706 10.7631 7.80216 10.7823 7.58249 10.7883C5.39173 10.846 3.42543 9.42782 2.88222 7.29278C2.07636 4.12144 4.43903 1.27433 7.44758 1.27433Z" fill="currentColor" fill-opacity="0.4"/>
</svg>
