<svg width="11" height="12" viewBox="0 0 11 12" fill="none" xmlns="http://www.w3.org/2000/svg">
<path d="M8.50018 0.166748C8.65485 0.166748 8.80319 0.228191 8.91256 0.33756C9.02192 0.446929 9.08337 0.595265 9.08337 0.749936V4.83312H7.91699V1.33312H2.08337V10.6667H5.00018V11.8331H1.50018C1.34551 11.8331 1.19717 11.7717 1.0878 11.6623C0.978435 11.5529 0.916992 11.4046 0.916992 11.2499V0.749936C0.916992 0.595265 0.978435 0.446929 1.0878 0.33756C1.19717 0.228191 1.34551 0.166748 1.50018 0.166748H8.50018ZM8.50018 5.99994C8.96431 5.99994 9.40943 6.18431 9.73762 6.5125C10.0658 6.84069 10.2502 7.28581 10.2502 7.74994V8.33312H10.8334V11.2499C10.8334 11.4046 10.7719 11.5529 10.6626 11.6623C10.5532 11.7717 10.4049 11.8331 10.2502 11.8331H6.75018C6.59551 11.8331 6.44717 11.7717 6.3378 11.6623C6.22844 11.5529 6.16699 11.4046 6.16699 11.2499V8.33312H6.75018V7.74994C6.75018 7.28581 6.93455 6.84069 7.26274 6.5125C7.59093 6.18431 8.03605 5.99994 8.50018 5.99994ZM9.66699 9.49994H7.33337V10.6667H9.66699V9.49994ZM8.50018 7.16675C8.20399 7.16675 7.91699 7.42925 7.91699 7.74994V8.33312H9.08337V7.74994C9.08337 7.59526 9.02192 7.44693 8.91256 7.33756C8.80319 7.22819 8.65485 7.16675 8.50018 7.16675Z" fill="#44638C"/>
</svg>
